<svg width="70" height="15" viewBox="0 0 70 15" fill="none" xmlns="http://www.w3.org/2000/svg">
<path fill-rule="evenodd" clip-rule="evenodd" d="M0 7.5C0 11.6667 3.33275 15 7.49942 15C11.6106 15 14.9994 11.6667 14.9994 7.5C14.9994 3.33333 11.6106 0 7.49942 0C3.33275 0 0 3.33333 0 7.5ZM7.49942 0.722316C11.2216 0.722316 14.2772 3.77783 14.2772 7.5C14.2772 11.2223 11.2216 14.2772 7.49942 14.2772C3.7771 14.2772 0.722174 11.2223 0.722174 7.5C0.722174 3.77783 3.7771 0.722316 7.49942 0.722316ZM48.961 9.69522C49.0172 7.97304 47.5167 6.75072 45.7951 6.30637C44.8506 6.08405 43.2394 5.91739 43.4061 4.91739C43.5178 4.19522 44.2949 4.08406 44.9616 4.08406C45.6283 4.08406 46.2388 4.30638 47.0727 4.86188L48.6284 2.97304C47.5727 2.41739 46.2951 1.75072 44.9616 1.75072C42.0727 1.75072 40.2394 3.30637 40.2394 5.30637C40.2394 6.08406 40.7951 7.13971 41.2949 7.52797C41.9617 8.13971 43.5178 8.69522 44.2394 8.86188C45.0172 9.08406 46.1284 9.30638 46.0727 10.028C45.9617 10.6952 45.2949 10.8613 44.5727 10.8613C43.5727 10.8613 42.6283 10.3619 41.7394 9.69522L39.7949 11.473C40.7394 12.1952 42.6283 13.2507 43.9616 13.2507C46.9616 13.2507 48.961 11.8619 48.961 9.69522ZM28.6839 7.58406C28.6839 10.6952 31.1839 13.2507 34.1839 13.2507C37.24 13.2507 39.7394 10.6952 39.7394 7.58406C39.7394 4.47304 37.24 1.97304 34.1839 1.97304C31.1839 1.97304 28.6839 4.47304 28.6839 7.58406ZM23.4067 13.1952H18.7957V2.08406H23.6845C26.5172 2.08406 27.8512 2.97304 27.8512 4.91739C27.8512 6.13971 27.2956 6.86188 26.0733 7.30638C27.4623 7.69522 28.1845 8.63971 28.1845 9.97304C28.1845 12.1952 26.5728 13.1952 23.4067 13.1952ZM59.5167 10.9174L57.4055 9.36188C56.7943 10.0841 56.0172 10.6397 55.1283 10.5286C53.7394 10.4174 52.7949 9.25072 52.7949 7.52797C52.7949 5.69522 53.6284 4.36188 55.1283 4.36188C56.1284 4.36188 56.7394 4.75073 57.35 5.52855L59.461 4.08406C58.7388 3.25072 57.4616 1.69522 54.9616 1.75072C51.4617 1.86188 49.9055 4.08406 49.9055 7.58406C49.9055 10.8064 52.0727 13.2507 55.2943 13.0286C57.6833 12.9168 58.85 11.6397 59.5167 10.9174ZM69.6277 12.6952V1.97304H66.5722V5.86188H63.2388V1.97304H60.2943V12.6952H63.2388V8.41739H66.5722V12.6952H69.6277ZM1.72217 7.55493C1.72217 5.77783 3.05493 3.33333 4.66609 2.5V5.11116L10.2772 5.16667V2.61116C11.9994 3.33333 13.221 5.72232 13.221 7.5C13.221 9.66667 11.9994 11.5 10.2772 12.3333V9.77782H4.66609V12.2778C2.94377 11.6667 1.72217 9.72232 1.72217 7.55493ZM2.38826 7.5C2.38826 8.94449 2.99942 10.2778 3.99942 11.2223V3.83333C2.99942 4.72232 2.38826 6.05565 2.38826 7.5ZM11.1104 3.94449V11.1112C11.9994 10.1667 12.5549 8.88898 12.5549 7.5C12.5549 6.11116 11.9994 4.83333 11.1104 3.94449ZM23.9623 8.52855H21.5178V10.8613H24.0178C24.629 10.8613 25.2957 10.1952 25.2957 9.75072C25.2957 8.97304 24.6845 8.52855 23.9623 8.52855ZM34.1839 4.52855C35.629 4.52855 36.7951 5.91739 36.7951 7.63971C36.7951 9.36188 35.629 10.8064 34.1839 10.8064C32.74 10.8064 31.5727 9.36188 31.5727 7.63971C31.5727 5.91739 32.74 4.52855 34.1839 4.52855ZM4.72159 9.11116H10.2772V5.88899H4.72159V9.11116ZM23.4623 4.25072H21.5178V6.52855H23.5733C24.0733 6.52855 24.7956 6.08406 24.7956 5.41681C24.7956 4.75073 24.4067 4.25072 23.4623 4.25072Z" fill="black"/>
</svg>
