<svg width="83" height="18" viewBox="0 0 83 18" fill="none" xmlns="http://www.w3.org/2000/svg">
<path fill-rule="evenodd" clip-rule="evenodd" d="M0 9.04637C0 14.0133 3.97282 17.9868 8.93972 17.9868C13.8404 17.9868 17.8801 14.0133 17.8801 9.04637C17.8801 4.07947 13.8404 0.105957 8.93972 0.105957C3.97282 0.105957 0 4.07947 0 9.04637ZM8.93972 0.966997C13.3768 0.966997 17.0193 4.60933 17.0193 9.04637C17.0193 13.4836 13.3768 17.1252 8.93972 17.1252C4.50251 17.1252 0.860871 13.4836 0.860871 9.04637C0.860871 4.60933 4.50251 0.966997 8.93972 0.966997ZM58.3642 11.6632C58.4312 9.61026 56.6425 8.15319 54.5902 7.6235C53.4643 7.35848 51.5438 7.15981 51.7424 5.96775C51.8756 5.10688 52.802 4.97438 53.5967 4.97438C54.3914 4.97438 55.1192 5.23939 56.1133 5.90159L57.9677 3.64998C56.7093 2.98762 55.1862 2.19291 53.5967 2.19291C50.153 2.19291 47.9676 4.04734 47.9676 6.43145C47.9676 7.35848 48.63 8.61688 49.2258 9.07971C50.0207 9.80894 51.8756 10.4711 52.7358 10.6698C53.663 10.9347 54.9876 11.1997 54.9212 12.0598C54.7889 12.8552 53.994 13.0532 53.1332 13.0532C51.9411 13.0532 50.8152 12.4579 49.7557 11.6632L47.4377 13.7825C48.5636 14.6433 50.8152 15.9015 52.4046 15.9015C55.9808 15.9015 58.3642 14.246 58.3642 11.6632ZM34.1928 9.14657C34.1928 12.8552 37.1729 15.9015 40.7491 15.9015C44.3921 15.9015 47.3716 12.8552 47.3716 9.14657C47.3716 5.43807 44.3921 2.45793 40.7491 2.45793C37.1729 2.45793 34.1928 5.43807 34.1928 9.14657ZM27.902 15.8354H22.4054V2.59027H28.2332C31.61 2.59027 33.2001 3.64999 33.2001 5.96775C33.2001 7.42483 32.5379 8.2857 31.0808 8.81556C32.7366 9.27908 33.5975 10.405 33.5975 11.9944C33.5975 14.6433 31.6762 15.8354 27.902 15.8354ZM70.9471 13.1201L68.4305 11.2658C67.702 12.1267 66.7756 12.7891 65.7159 12.6566C64.0603 12.5241 62.9344 11.1333 62.9344 9.07971C62.9344 6.89497 63.928 5.30556 65.7159 5.30556C66.9081 5.30556 67.6365 5.76908 68.3643 6.69629L70.8808 4.97438C70.0199 3.981 68.4974 2.12675 65.5172 2.19291C61.3452 2.32542 59.4901 4.97438 59.4901 9.14657C59.4901 12.9877 62.0736 15.9015 65.9139 15.6367C68.7617 15.5035 70.1524 13.9811 70.9471 13.1201ZM83 15.2393V2.45793H79.3577V7.09364H75.3842V2.45793H71.8742V15.2393H75.3842V10.1399H79.3577V15.2393H83ZM2.05292 9.11184C2.05292 6.99344 3.64164 4.07947 5.56223 3.08609V6.19874L12.251 6.2649V3.2186C14.304 4.07947 15.7602 6.92727 15.7602 9.04637C15.7602 11.6292 14.304 13.8146 12.251 14.808V11.7617H5.56223V14.7418C3.50913 14.0133 2.05292 11.6955 2.05292 9.11184ZM2.84694 9.04637C2.84694 10.7683 3.57547 12.3577 4.76753 13.4836V4.6755C3.57547 5.73522 2.84694 7.32463 2.84694 9.04637ZM13.2442 4.808V13.3511C14.304 12.2252 14.9662 10.7021 14.9662 9.04637C14.9662 7.39079 14.304 5.86755 13.2442 4.808ZM28.5644 10.2725H25.6504V13.0532H28.6306C29.3591 13.0532 30.1538 12.2592 30.1538 11.7294C30.1538 10.8023 29.4253 10.2725 28.5644 10.2725ZM40.7491 5.50423C42.4717 5.50423 43.8617 7.15981 43.8617 9.21291C43.8617 11.2658 42.4717 12.9877 40.7491 12.9877C39.0279 12.9877 37.6364 11.2658 37.6364 9.21291C37.6364 7.15981 39.0279 5.50423 40.7491 5.50423ZM5.6284 10.967H12.251V7.12595H5.6284V10.967ZM27.9684 5.17305H25.6504V7.88835H28.1007C28.6967 7.88835 29.5578 7.35849 29.5578 6.56309C29.5578 5.76908 29.0941 5.17305 27.9684 5.17305Z" fill="black"/>
</svg>
