<svg width="47" height="28" viewBox="0 0 47 28" fill="none" xmlns="http://www.w3.org/2000/svg">
<path d="M26.9232 0.506836H0.352539V27.0448H26.9232V0.506836Z" fill="#131515"/>
<path d="M12.9217 11.1008V16.6284C12.9217 17.8815 12.852 18.8004 12.7126 19.3713C12.5732 19.9422 12.2944 20.4852 11.8623 20.9864C11.4301 21.4877 10.9143 21.8497 10.3009 22.0585C9.68754 22.2813 9.01839 22.3788 8.2656 22.3788C7.27582 22.3788 6.45333 22.2674 5.79812 22.0307C5.14291 21.8079 4.62711 21.4459 4.23678 20.9586C3.84644 20.4712 3.56763 19.9561 3.40034 19.427C3.23306 18.884 3.14941 18.0347 3.14941 16.8651V11.073C3.14941 9.54139 3.28882 8.4136 3.53975 7.64781C3.80462 6.89595 4.33436 6.28332 5.11503 5.82385C5.8957 5.36438 6.84366 5.1416 7.95891 5.1416C8.86504 5.1416 9.6736 5.29476 10.3985 5.615C11.1095 5.93523 11.6532 6.32509 12.0156 6.78456C12.3641 7.24403 12.6151 7.7592 12.7405 8.33006C12.866 8.91484 12.9217 9.83378 12.9217 11.1008ZM8.7814 9.69455C8.7814 8.81738 8.73958 8.26044 8.65593 8.03767C8.57229 7.81489 8.36318 7.7035 8.05649 7.7035C7.7498 7.7035 7.54069 7.81489 7.44311 8.05159C7.34552 8.30221 7.3037 8.84522 7.3037 9.69455V17.798C7.3037 18.7587 7.34552 19.3435 7.44311 19.5384C7.52675 19.7333 7.73586 19.8308 8.04255 19.8308C8.34924 19.8308 8.54441 19.7194 8.64199 19.4827C8.73958 19.246 8.7814 18.7308 8.7814 17.9093V9.69455Z" fill="white"/>
<path d="M23.3063 5.47656V8.13593H18.1762V10.9485C18.8175 10.1827 19.6539 9.80674 20.6576 9.80674C21.8007 9.80674 22.665 10.127 23.2506 10.7675C23.8361 11.4079 24.1288 12.6332 24.1288 14.4572V16.8241C24.1288 17.9937 24.073 18.857 23.9615 19.4139C23.85 19.9569 23.5991 20.4721 23.2366 20.9455C22.8742 21.4189 22.3584 21.7669 21.6892 22.0176C21.034 22.2682 20.2254 22.3935 19.2775 22.3935C18.2041 22.3935 17.27 22.2125 16.4615 21.8366C15.6529 21.4606 15.0674 20.9037 14.7189 20.1658C14.3704 19.4278 14.2031 18.2861 14.2031 16.7406V15.8356H18.3435V16.8659C18.3435 17.938 18.3853 18.7038 18.455 19.1493C18.5247 19.5949 18.7896 19.8316 19.2357 19.8316C19.4448 19.8316 19.5981 19.762 19.7375 19.6367C19.863 19.5114 19.9327 19.3721 19.9466 19.219C19.9606 19.0658 19.9745 18.4114 19.9885 17.2558V13.9698C19.9885 13.3433 19.9188 12.9256 19.7933 12.7028C19.6678 12.48 19.4448 12.3686 19.152 12.3686C18.9569 12.3686 18.8035 12.4243 18.678 12.5497C18.5526 12.661 18.4689 12.7863 18.4271 12.9256C18.3853 13.0648 18.3714 13.3711 18.3714 13.8585H14.2728L14.4541 5.49049H23.3063V5.47656Z" fill="white"/>
<path d="M28.4285 18.6899V22.0732H25.292V18.6899H28.4285Z" fill="#E10718"/>
<path d="M33.7136 8.4701L33.5463 10.2523C34.1457 8.97134 35.024 8.2891 36.1671 8.21948V13.0091C35.4143 13.0091 34.8567 13.1066 34.4943 13.3154C34.1318 13.5243 33.9227 13.8028 33.8391 14.1648C33.7554 14.5268 33.7136 15.3761 33.7136 16.6988V22.0732H29.5732V8.4701H33.7136Z" fill="#E10718"/>
<path d="M46.5793 8.47168V22.0748H42.3692L42.4389 20.947C42.1601 21.4065 41.7977 21.7546 41.3795 21.9774C40.9612 22.2001 40.4733 22.3254 39.9296 22.3254C39.3023 22.3254 38.7865 22.2141 38.3822 21.9913C37.978 21.7685 37.6713 21.4761 37.4761 21.1141C37.2809 20.7521 37.1555 20.3762 37.1136 19.9863C37.0579 19.5965 37.0439 18.8168 37.0439 17.6472V8.47168H41.1843V17.7307C41.1843 18.7889 41.2122 19.4155 41.2819 19.6104C41.3516 19.8053 41.5189 19.9028 41.8116 19.9028C42.1183 19.9028 42.2995 19.8053 42.3553 19.5965C42.4111 19.3876 42.4389 18.7332 42.4389 17.6193V8.47168H46.5793Z" fill="#E10718"/>
</svg>
