<svg width="44" height="25" viewBox="0 0 44 25" fill="none" xmlns="http://www.w3.org/2000/svg">
<path d="M25.0308 0H0V25H25.0308V0Z" fill="#131515"/>
<path d="M11.8408 9.98V15.1872C11.8408 16.3677 11.7751 17.2334 11.6438 17.7712C11.5124 18.309 11.2498 18.8205 10.8427 19.2927C10.4356 19.7649 9.94966 20.1059 9.37182 20.3027C8.79398 20.5125 8.16361 20.6043 7.45445 20.6043C6.52203 20.6043 5.74721 20.4994 5.12997 20.2764C4.51274 20.0666 4.02683 19.7255 3.65911 19.2665C3.2914 18.8074 3.02875 18.3221 2.87115 17.8237C2.71356 17.3121 2.63477 16.512 2.63477 15.4102V9.95377C2.63477 8.51096 2.76609 7.44852 3.00248 6.72712C3.252 6.01883 3.75104 5.4417 4.48647 5.00886C5.2219 4.57601 6.11492 4.36615 7.16553 4.36615C8.01915 4.36615 8.78085 4.51043 9.46375 4.81211C10.1335 5.11379 10.6457 5.48105 10.9871 5.91389C11.3155 6.34674 11.5518 6.83205 11.67 7.36982C11.7882 7.92072 11.8408 8.7864 11.8408 9.98ZM7.94036 8.65524C7.94036 7.8289 7.90096 7.30424 7.82216 7.09438C7.74337 6.88451 7.54638 6.77958 7.25746 6.77958C6.96854 6.77958 6.77155 6.88451 6.67962 7.10749C6.5877 7.34359 6.5483 7.85513 6.5483 8.65524V16.289C6.5483 17.1941 6.5877 17.745 6.67962 17.9286C6.75842 18.1122 6.95541 18.204 7.24433 18.204C7.53325 18.204 7.7171 18.0991 7.80903 17.8761C7.90096 17.6531 7.94036 17.1678 7.94036 16.394V8.65524Z" fill="white"/>
<path d="M21.6235 4.68182V7.18708H16.7907V9.83661C17.3948 9.1152 18.1827 8.76105 19.1283 8.76105C20.2052 8.76105 21.0194 9.06273 21.5709 9.66609C22.1225 10.2695 22.3983 11.4237 22.3983 13.142V15.3718C22.3983 16.4736 22.3458 17.2868 22.2407 17.8114C22.1357 18.323 21.8993 18.8083 21.5578 19.2542C21.2164 19.7002 20.7305 20.0281 20.1001 20.2642C19.4829 20.5003 18.7212 20.6184 17.8281 20.6184C16.8169 20.6184 15.937 20.4478 15.1753 20.0937C14.4136 19.7396 13.8621 19.2149 13.5338 18.5197C13.2054 17.8246 13.0479 16.749 13.0479 15.2931V14.4405H16.9483V15.4111C16.9483 16.4211 16.9876 17.1425 17.0533 17.5622C17.119 17.9819 17.3685 18.2049 17.7887 18.2049C17.9857 18.2049 18.1302 18.1393 18.2615 18.0213C18.3797 17.9032 18.4454 17.7721 18.4585 17.6278C18.4716 17.4835 18.4848 16.867 18.4979 15.7784V12.6829C18.4979 12.0926 18.4322 11.6991 18.314 11.4893C18.1959 11.2794 17.9857 11.1745 17.7099 11.1745C17.5261 11.1745 17.3816 11.227 17.2634 11.345C17.1452 11.4499 17.0664 11.568 17.027 11.6991C16.9876 11.8303 16.9745 12.1189 16.9745 12.578H13.1135L13.2842 4.69494H21.6235V4.68182Z" fill="white"/>
<path d="M26.4489 17.1292V20.3164H23.4941V17.1292H26.4489Z" fill="#E10718"/>
<path d="M31.4277 7.50178L31.2702 9.18069C31.8349 7.97397 32.6622 7.33127 33.7391 7.26569V11.7778C33.0299 11.7778 32.5046 11.8696 32.1632 12.0663C31.8217 12.2631 31.6247 12.5254 31.5459 12.8664C31.4671 13.2074 31.4277 14.0076 31.4277 15.2536V20.3166H27.5273V7.50178H31.4277Z" fill="#E10718"/>
<path d="M43.5482 7.50311V20.3179H39.5821L39.6478 19.2555C39.3851 19.6883 39.0437 20.0162 38.6497 20.2261C38.2557 20.436 37.7961 20.554 37.2839 20.554C36.6929 20.554 36.207 20.4491 35.8262 20.2392C35.4453 20.0293 35.1564 19.7539 34.9725 19.4129C34.7887 19.0718 34.6705 18.7177 34.6311 18.3504C34.5786 17.9832 34.5654 17.2487 34.5654 16.1469V7.50311H38.4658V16.2256C38.4658 17.2224 38.4921 17.8127 38.5578 17.9963C38.6234 18.1799 38.781 18.2717 39.0568 18.2717C39.3457 18.2717 39.5164 18.1799 39.569 17.9832C39.6215 17.7864 39.6478 17.17 39.6478 16.1206V7.50311H43.5482Z" fill="#E10718"/>
</svg>
