<svg width="85" height="29" viewBox="0 0 85 29" fill="none" xmlns="http://www.w3.org/2000/svg">
<path fill-rule="evenodd" clip-rule="evenodd" d="M71.1289 28.5344C78.7899 28.5344 85 22.3244 85 14.6625C85 7.0015 78.7899 0.791016 71.1289 0.791016H13.872C6.21049 0.791016 0 7.0015 0 14.6625C0 22.3244 6.21049 28.5344 13.872 28.5344H71.1289ZM70.9147 26.874C77.6519 26.874 83.1142 21.4127 83.1142 14.675C83.1142 7.9373 77.6519 2.4755 70.9147 2.4755H14.0355C7.29823 2.4755 1.83596 7.9373 1.83596 14.675C1.83596 21.4127 7.29823 26.874 14.0355 26.874H70.9147ZM70.9775 24.3005C76.304 24.3005 80.6205 19.9835 80.6205 14.6581C80.6205 9.33264 76.304 5.01662 70.9775 5.01662H14.1245C8.79896 5.01662 4.48201 9.33264 4.48201 14.6581C4.48201 19.9835 8.79896 24.3005 14.1245 24.3005H70.9775ZM61.6828 11.0602H58.2693V11.5352C57.6753 11.0868 56.9499 10.8894 56.2118 10.8894C54.3537 10.8894 53.8923 12.0227 53.8923 13.8286V16.953C53.8923 18.7715 54.7885 19.5366 56.3574 19.5366C56.9498 19.5366 57.6352 19.3524 58.1895 18.9305V19.4573C58.1895 19.9317 58.2693 20.7496 57.5835 20.7496C57.3324 20.7496 57.1878 20.6176 57.096 20.4333C57.0166 20.2486 57.0031 20.0116 57.0031 19.8268H54.1158V21.817C55.3288 22.4893 56.3705 22.7007 57.7547 22.7007C58.7036 22.7007 59.903 22.5817 60.6149 21.8833C61.3399 21.1844 61.3013 19.9192 61.3013 18.9829V13.9476C61.3013 13.5254 61.2742 13.1689 61.6828 12.9184V11.0602ZM19.5916 16.3335C19.5916 17.3351 19.6317 18.2579 20.5013 18.904C21.1866 19.4182 22.4659 19.6294 23.7311 19.5366C25.0094 19.4443 26.2886 19.0622 26.9734 18.4691V16.3862H23.8631V16.6894C23.8631 17.1111 23.823 17.5987 23.2828 17.5987C22.742 17.5987 22.6898 17.0579 22.7029 16.6492V15.8851H26.9734V13.921C27.0267 11.8906 26.2745 10.876 23.2165 10.8894C20.3035 10.9026 19.5388 11.8118 19.5916 14.0792V16.3335ZM44.1105 14.0395C44.1105 12.9852 44.0443 11.9825 43.0431 11.3771C42.3176 10.9548 41.052 10.8894 40.2084 10.8894C39.2731 10.8894 38.2575 10.9684 37.5063 11.5613C36.7286 12.1678 36.7155 13.1433 36.7155 14.0395V16.2019C36.7155 17.2954 36.7155 18.3111 37.7302 18.9829C38.4552 19.4704 39.6687 19.5366 40.5247 19.5366C41.4737 19.5366 42.5817 19.4573 43.3328 18.8116C44.084 18.166 44.1105 17.1242 44.1105 16.2019V14.0395ZM74.9174 16.4123C74.9174 16.8345 74.8781 17.2563 75.3129 17.5068V19.3654H71.4244V17.5068C71.8331 17.2563 71.807 16.8867 71.807 16.4655V14.0129C71.807 13.5911 71.8462 13.1689 71.4244 12.9184V11.0602H74.9174V16.4123ZM48.2766 11.5749C49.1201 11.0075 49.8582 10.8629 50.5174 10.8894C51.1635 10.9157 51.7298 11.1269 52.0461 11.4428C52.6135 11.9825 52.6788 12.5899 52.6788 13.3009V16.4123C52.6788 16.8209 52.6401 17.2824 53.0488 17.5068V19.3654H49.7397C49.5549 18.5214 49.5679 17.6387 49.5679 16.7818V14.3563C49.5679 14.3031 49.6081 13.921 49.4757 13.6172C49.2647 13.3009 48.9223 13.064 48.4087 13.3009V16.4123C48.4087 16.8209 48.369 17.2824 48.7903 17.5068V19.3654H44.9148V17.5068C45.3235 17.2693 45.2969 16.8867 45.2969 16.4655V13.9476C45.2969 13.4993 45.3104 13.2091 44.9148 12.9184V11.0602H48.2766V11.5749ZM66.0327 11.4302C66.7447 11.0075 67.4827 10.8629 68.1419 10.8894C68.7881 10.9157 69.3545 11.1269 69.6712 11.4428C70.2381 11.9825 70.3038 12.5899 70.3038 13.3009V16.4123C70.3038 16.8209 70.2643 17.2824 70.6728 17.5068V19.3654H67.3647C67.1794 18.5214 67.193 17.6387 67.193 16.7818V14.3563C67.193 14.3031 67.2323 13.921 67.1011 13.6172C66.8903 13.3009 66.5464 13.064 66.0327 13.3009V16.4123C66.0327 16.8209 65.9931 17.2824 66.4148 17.5068V19.3654H62.5395V17.5068C62.948 17.2693 62.9219 16.8867 62.9219 16.4655V11.0211C62.935 10.5988 62.9612 10.1505 62.5263 9.92706V8.06788H66.0327V11.4302ZM27.6854 19.3654V17.3612C28.1076 17.0981 28.068 16.6764 28.068 16.2541V11.1792C28.068 10.7575 28.1076 10.3358 27.6854 10.0717V8.06788H31.97V10.0717C31.5483 10.3358 31.5874 10.7575 31.5874 11.1792V16.9661H31.9304C32.8265 16.9661 32.8135 16.4253 32.8135 15.7134V13.8814H35.9112V19.3654H27.6854ZM9.94288 8.06788V10.0717C10.351 10.2434 10.3771 10.5722 10.3907 10.9684V16.4655C10.3771 16.8476 10.338 17.1905 9.94288 17.3612V19.3654H14.9248C15.9927 19.3654 16.9949 19.2997 17.7992 18.5345C18.6557 17.7307 18.7089 16.8742 18.7089 15.7666V11.5352C18.7089 10.4542 18.616 9.42596 17.6938 8.70096C16.8894 8.08146 15.7819 8.06788 14.8199 8.06788H9.94288ZM39.8269 14.0661C39.8269 13.6042 39.747 12.8265 40.4198 12.8265C41.0921 12.8265 41.0002 13.6172 41.0002 14.0661V16.4655C41.0002 16.9133 41.0388 17.5987 40.4068 17.5987C39.7872 17.5987 39.8269 16.9133 39.8269 16.4655V14.0661ZM58.1895 17.0318C58.0309 17.1242 57.8074 17.1773 57.6352 17.1773C57.0031 17.1773 57.0031 16.4514 57.0031 16.0041V14.172C57.0031 13.6975 57.0031 13.1433 57.6226 13.1433C57.8204 13.1433 58.0309 13.2091 58.1895 13.314V17.0318ZM13.9102 10.5331H14.1873C14.952 10.5331 15.1889 10.8092 15.1889 11.6276V15.8851C15.1889 16.7029 14.952 16.98 14.1873 16.98H13.9102V10.5331ZM23.9154 13.9868H22.7029V13.6709C22.7029 13.3411 22.7551 12.8265 23.3094 12.8265C23.8631 12.8265 23.9154 13.3411 23.9154 13.6709V13.9868ZM71.5561 9.22817C71.5561 8.33195 72.4789 7.96249 73.2439 7.96249C74.0211 7.96249 74.9174 8.38465 74.9174 9.28087C74.9174 10.1505 74.0347 10.5592 73.2696 10.5592C72.4532 10.5592 71.5561 10.1645 71.5561 9.22817ZM19.9897 9.33705H26.6944V9.91638H19.9897V9.33705Z" fill="#00539C"/>
</svg>
