<svg width="72" height="24" viewBox="0 0 72 24" fill="none" xmlns="http://www.w3.org/2000/svg">
<path fill-rule="evenodd" clip-rule="evenodd" d="M60.2504 23.5003C66.7396 23.5003 72 18.24 72 11.7499C72 5.26065 66.7396 0 60.2504 0H11.7504C5.26065 0 0 5.26065 0 11.7499C0 18.24 5.26065 23.5003 11.7504 23.5003H60.2504ZM60.069 22.0939C65.7757 22.0939 70.4027 17.4678 70.4027 11.7606C70.4027 6.05332 65.7757 1.42686 60.069 1.42686H11.8889C6.18203 1.42686 1.55517 6.05332 1.55517 11.7606C1.55517 17.4678 6.18203 22.0939 11.8889 22.0939H60.069ZM60.1222 19.9139C64.634 19.9139 68.2903 16.2571 68.2903 11.7462C68.2903 7.23526 64.634 3.57933 60.1222 3.57933H11.9643C7.45324 3.57933 3.79653 7.23526 3.79653 11.7462C3.79653 16.2571 7.45324 19.9139 11.9643 19.9139H60.1222ZM52.249 8.69859H49.3575V9.10093C48.8544 8.72111 48.2399 8.55396 47.6147 8.55396C46.0408 8.55396 45.65 9.51388 45.65 11.0436V13.6901C45.65 15.2306 46.4091 15.8786 47.738 15.8786C48.2399 15.8786 48.8204 15.7226 49.29 15.3653V15.8114C49.29 16.2133 49.3575 16.9061 48.7766 16.9061C48.5639 16.9061 48.4414 16.7943 48.3637 16.6381C48.2964 16.4817 48.285 16.2809 48.285 16.1244H45.8392V17.8102C46.8667 18.3797 47.7491 18.5588 48.9216 18.5588C49.7254 18.5588 50.7414 18.458 51.3444 17.8664C51.9585 17.2744 51.9258 16.2027 51.9258 15.4096V11.1444C51.9258 10.7868 51.9029 10.4848 52.249 10.2726V8.69859ZM16.5953 13.1654C16.5953 14.0138 16.6292 14.7955 17.3658 15.3427C17.9463 15.7783 19.0299 15.9573 20.1016 15.8786C21.1845 15.8004 22.268 15.4767 22.8481 14.9744V13.21H20.2134V13.4668C20.2134 13.824 20.1795 14.2371 19.7219 14.2371C19.2638 14.2371 19.2196 13.779 19.2307 13.4328V12.7856H22.8481V11.1218C22.8932 9.40199 22.2561 8.54255 19.6658 8.55396C17.1983 8.56507 16.5505 9.33523 16.5953 11.2559V13.1654ZM37.3642 11.2222C37.3642 10.3292 37.3081 9.47986 36.4601 8.96701C35.8455 8.60931 34.7734 8.55396 34.0589 8.55396C33.2666 8.55396 32.4063 8.62082 31.7701 9.12305C31.1113 9.63679 31.1002 10.4631 31.1002 11.2222V13.0539C31.1002 13.9802 31.1002 14.8405 31.9597 15.4096C32.5739 15.8225 33.6017 15.8786 34.3268 15.8786C35.1306 15.8786 36.0692 15.8114 36.7055 15.2645C37.3417 14.7176 37.3642 13.8352 37.3642 13.0539V11.2222ZM63.4594 13.2321C63.4594 13.5897 63.4262 13.947 63.7945 14.1592V15.7336H60.5007V14.1592C60.8469 13.947 60.8248 13.634 60.8248 13.2772V11.1997C60.8248 10.8424 60.858 10.4848 60.5007 10.2726V8.69859H63.4594V13.2321ZM40.8931 9.13455C41.6076 8.65395 42.2329 8.53144 42.7912 8.55396C43.3385 8.57618 43.8182 8.75513 44.0861 9.02266C44.5667 9.47986 44.622 9.99438 44.622 10.5966V13.2321C44.622 13.5782 44.5893 13.9692 44.9355 14.1592V15.7336H42.1325C41.9759 15.0187 41.987 14.271 41.987 13.5451V11.4906C41.987 11.4455 42.021 11.1218 41.9088 10.8645C41.7301 10.5966 41.4401 10.3959 41.005 10.5966V13.2321C41.005 13.5782 40.9714 13.9692 41.3283 14.1592V15.7336H38.0455V14.1592C38.3917 13.9581 38.3692 13.634 38.3692 13.2772V11.1444C38.3692 10.7646 38.3806 10.5188 38.0455 10.2726V8.69859H40.8931V9.13455ZM55.9336 9.01204C56.5367 8.65395 57.1619 8.53144 57.7202 8.55396C58.2676 8.57618 58.7473 8.75513 59.0156 9.02266C59.4958 9.47986 59.5515 9.99438 59.5515 10.5966V13.2321C59.5515 13.5782 59.518 13.9692 59.8641 14.1592V15.7336H57.0619C56.9049 15.0187 56.9164 14.271 56.9164 13.5451V11.4906C56.9164 11.4455 56.9497 11.1218 56.8386 10.8645C56.66 10.5966 56.3687 10.3959 55.9336 10.5966V13.2321C55.9336 13.5782 55.9001 13.9692 56.2573 14.1592V15.7336H52.9746V14.1592C53.3207 13.9581 53.2986 13.634 53.2986 13.2772V8.66546C53.3097 8.30776 53.3318 7.92804 52.9635 7.73877V6.16393H55.9336V9.01204ZM23.4512 15.7336V14.0359C23.8088 13.813 23.7753 13.4558 23.7753 13.0981V8.79937C23.7753 8.44217 23.8088 8.08496 23.4512 7.86128V6.16393H27.0805V7.86128C26.7233 8.08496 26.7564 8.44217 26.7564 8.79937V13.7012H27.0469C27.806 13.7012 27.795 13.2432 27.795 12.6401V11.0883H30.4189V15.7336H23.4512ZM8.42221 6.16393V7.86128C8.76791 8.0067 8.79003 8.28524 8.80154 8.62082V13.2772C8.79003 13.6009 8.7569 13.8913 8.42221 14.0359V15.7336H12.6422C13.5468 15.7336 14.3957 15.6779 15.077 15.0298C15.8025 14.3489 15.8475 13.6234 15.8475 12.6852V9.10093C15.8475 8.18525 15.7689 7.31431 14.9877 6.70019C14.3063 6.17544 13.3682 6.16393 12.5533 6.16393H8.42221ZM33.7357 11.2448C33.7357 10.8535 33.6681 10.1948 34.238 10.1948C34.8074 10.1948 34.7296 10.8645 34.7296 11.2448V13.2772C34.7296 13.6565 34.7623 14.2371 34.227 14.2371C33.7021 14.2371 33.7357 13.6565 33.7357 13.2772V11.2448ZM49.29 13.7569C49.1555 13.8352 48.9663 13.8802 48.8204 13.8802C48.285 13.8802 48.285 13.2653 48.285 12.8863V11.3345C48.285 10.9326 48.285 10.4631 48.8098 10.4631C48.9773 10.4631 49.1555 10.5188 49.29 10.6077V13.7569ZM11.7828 8.25211H12.0175C12.6652 8.25211 12.8659 8.48602 12.8659 9.17919V12.7856C12.8659 13.4783 12.6652 13.713 12.0175 13.713H11.7828V8.25211ZM20.2578 11.1776H19.2307V10.9101C19.2307 10.6306 19.2749 10.1948 19.7444 10.1948C20.2134 10.1948 20.2578 10.6306 20.2578 10.9101V11.1776ZM60.6122 7.14677C60.6122 6.38762 61.3939 6.07466 62.0419 6.07466C62.7003 6.07466 63.4594 6.43226 63.4594 7.19141C63.4594 7.92804 62.7118 8.27423 62.0636 8.27423C61.3721 8.27423 60.6122 7.93993 60.6122 7.14677ZM16.9324 7.239H22.6117V7.72972H16.9324V7.239Z" fill="#00539C"/>
</svg>
