<svg width="53" height="20" viewBox="0 0 53 20" fill="none" xmlns="http://www.w3.org/2000/svg">
<path fill-rule="evenodd" clip-rule="evenodd" d="M10.0828 0H7.42974V4.89528C6.5303 4.89528 5.58953 4.89331 5.03451 4.89331C2.25352 4.89331 0 7.14435 0 9.92424C0 12.7002 2.25352 14.9512 5.03451 14.9512C7.8155 14.9512 10.0808 12.6982 10.0808 9.92227C10.0808 8.53233 10.0828 4.88938 10.0828 4.88938V0ZM7.42974 9.92424C7.42974 11.2454 6.3571 12.3168 5.03451 12.3168C3.70995 12.3168 2.63731 11.2454 2.63731 9.92424C2.63731 8.60114 3.70995 7.52968 5.03451 7.52968H7.42777L7.42974 9.92424Z" fill="#2D2D2D"/>
<path fill-rule="evenodd" clip-rule="evenodd" d="M31.8132 9.92226C31.8132 7.14434 34.0667 4.89526 36.8457 4.89526C39.6267 4.89526 41.8802 7.1463 41.8802 9.92226C41.8802 12.6982 39.6267 14.9493 36.8457 14.9493C34.0667 14.9493 31.8132 12.6982 31.8132 9.92226ZM36.8359 12.3247C38.1624 12.3247 39.2429 11.2493 39.2429 9.92422C39.2429 8.59719 38.1644 7.5218 36.8359 7.5218C35.5093 7.5218 34.4328 8.59719 34.4328 9.92422C34.4328 11.2493 35.5093 12.3247 36.8359 12.3247Z" fill="#2D2D2D"/>
<path fill-rule="evenodd" clip-rule="evenodd" d="M50.3469 9.92817C50.3469 8.6149 49.2822 7.55131 47.9694 7.55131C46.6547 7.55131 45.5899 8.6149 45.5899 9.92817C45.5899 10.573 45.5899 14.7468 45.5899 14.7468C44.2398 14.7487 42.9349 14.7487 42.9349 14.7487C42.9349 14.7487 42.9349 11.3161 42.9349 9.92817C42.9349 7.15025 45.1884 4.90117 47.9694 4.90117C50.7484 4.90117 52.998 7.15221 52.998 9.92817C52.998 11.3437 53 14.7428 53 14.7428C53 14.7428 51.6951 14.7428 50.3469 14.7428C50.3469 14.7428 50.3469 10.5887 50.3469 9.92817Z" fill="#2D2D2D"/>
<path fill-rule="evenodd" clip-rule="evenodd" d="M25.6172 8.17647C25.2314 7.92482 25.3574 7.46085 25.9793 7.29178C26.802 7.06569 28.1581 7.24853 29.3744 7.78327L30.6281 6.07484C30.0829 5.6207 28.9138 5.04074 27.1819 4.93064C27.1819 4.93064 24.2867 4.57087 23.1157 6.76686C23.1157 6.76686 22.0785 8.81934 24.1253 10.0953C25.3692 10.8718 27.5322 11.1471 28.1876 11.5167C28.7465 11.8312 28.5615 12.423 27.7349 12.6097C26.3631 12.9184 24.519 12.1379 23.901 11.6759L22.6335 13.4217C23.4818 14.0764 24.5741 14.6367 26.3021 14.9198C26.3021 14.9198 29.0241 15.3896 30.5238 13.52C30.8013 13.174 32.0333 10.8679 29.5574 9.55068C28.3254 8.89405 26.2687 8.59915 25.6172 8.17647Z" fill="#2D2D2D"/>
<path fill-rule="evenodd" clip-rule="evenodd" d="M13.2495 16.7088C13.3597 16.7757 14.5977 17.623 15.7963 17.6486C18.6777 17.7095 18.8607 14.7134 18.8607 14.0036C18.3076 14.5856 17.1819 14.9493 16.4812 14.9493C13.7002 14.9493 11.4703 12.7749 11.4703 9.99699C11.4703 8.62277 11.4703 5.08795 11.4703 5.08795C11.4703 5.08795 12.7653 5.08992 14.1194 5.09188C14.1194 5.09188 14.1234 9.39933 14.1234 9.99699C14.1234 11.3083 15.1881 12.3719 16.5009 12.3719C17.8156 12.3719 18.8764 11.3083 18.8764 9.99699C18.8764 9.46028 18.8784 5.09188 18.8784 5.09188C20.2345 5.08992 21.5354 5.08795 21.5354 5.08795L21.5334 9.99699C21.5334 14.3477 21.746 18.8163 17.5046 19.8269C14.3084 20.5897 12.0509 18.5903 11.9387 18.4998L13.2495 16.7088Z" fill="#2D2D2D"/>
</svg>
