<svg width="67" height="25" viewBox="0 0 67 25" fill="none" xmlns="http://www.w3.org/2000/svg">
<path fill-rule="evenodd" clip-rule="evenodd" d="M12.5896 0H9.27694V6.11909C8.15388 6.11909 6.97921 6.11664 6.2862 6.11664C2.8138 6.11664 0 8.93044 0 12.4053C0 15.8752 2.8138 18.689 6.2862 18.689C9.75861 18.689 12.5872 15.8728 12.5872 12.4028C12.5872 10.6654 12.5896 6.11172 12.5896 6.11172V0ZM9.27694 12.4053C9.27694 14.0567 7.93762 15.396 6.2862 15.396C4.63233 15.396 3.29301 14.0567 3.29301 12.4053C3.29301 10.7514 4.63233 9.4121 6.2862 9.4121H9.27448L9.27694 12.4053Z" fill="black"/>
<path fill-rule="evenodd" clip-rule="evenodd" d="M39.7226 12.4028C39.7226 8.93042 42.5364 6.11908 46.0064 6.11908C49.4788 6.11908 52.2926 8.93288 52.2926 12.4028C52.2926 15.8728 49.4788 18.6866 46.0064 18.6866C42.5364 18.6866 39.7226 15.8728 39.7226 12.4028ZM45.9941 15.4059C47.6504 15.4059 48.9996 14.0616 48.9996 12.4053C48.9996 10.7465 47.6529 9.40226 45.9941 9.40226C44.3378 9.40226 42.9935 10.7465 42.9935 12.4053C42.9935 14.0616 44.3378 15.4059 45.9941 15.4059Z" fill="black"/>
<path fill-rule="evenodd" clip-rule="evenodd" d="M62.8643 12.4102C62.8643 10.7686 61.5348 9.43913 59.8957 9.43913C58.2541 9.43913 56.9246 10.7686 56.9246 12.4102C56.9246 13.2163 56.9246 18.4335 56.9246 18.4335C55.2388 18.4359 53.6095 18.4359 53.6095 18.4359C53.6095 18.4359 53.6095 14.1452 53.6095 12.4102C53.6095 8.93781 56.4233 6.12647 59.8957 6.12647C63.3656 6.12647 66.1745 8.94027 66.1745 12.4102C66.1745 14.1796 66.177 18.4286 66.177 18.4286C66.177 18.4286 64.5477 18.4286 62.8643 18.4286C62.8643 18.431 62.8643 13.2359 62.8643 12.4102Z" fill="black"/>
<path fill-rule="evenodd" clip-rule="evenodd" d="M31.9862 10.2206C31.5045 9.90603 31.6618 9.32607 32.4384 9.11472C33.4656 8.83211 35.1588 9.06066 36.6775 9.72909L38.2429 7.59355C37.5622 7.02588 36.1025 6.30092 33.9399 6.1633C33.9399 6.1633 30.325 5.71359 28.8628 8.45858C28.8628 8.45858 27.5677 11.0242 30.1234 12.6191C31.6766 13.5898 34.3773 13.9338 35.1957 14.3958C35.8936 14.789 35.6626 15.5287 34.6304 15.7622C32.9176 16.148 30.6149 15.1724 29.8433 14.5949L28.2607 16.7771C29.3199 17.5954 30.6838 18.2958 32.8414 18.6497C32.8414 18.6497 36.2401 19.237 38.1127 16.9C38.4592 16.4675 39.9976 13.5849 36.9061 11.9384C35.3677 11.1176 32.7996 10.7489 31.9862 10.2206Z" fill="black"/>
<path fill-rule="evenodd" clip-rule="evenodd" d="M16.5436 20.886C16.6813 20.9696 18.227 22.0288 19.7236 22.0607C23.3213 22.1369 23.5499 18.3917 23.5499 17.5046C22.8593 18.232 21.4537 18.6866 20.5788 18.6866C17.1064 18.6866 14.3221 15.9686 14.3221 12.4962C14.3221 10.7785 14.3221 6.35994 14.3221 6.35994C14.3221 6.35994 15.9391 6.3624 17.6298 6.36485C17.6298 6.36485 17.6348 11.7492 17.6348 12.4962C17.6348 14.1354 18.9642 15.4649 20.6034 15.4649C22.245 15.4649 23.5695 14.1354 23.5695 12.4962C23.5695 11.8253 23.572 6.36485 23.572 6.36485C25.2652 6.3624 26.8896 6.35994 26.8896 6.35994L26.8871 12.4962C26.8871 17.9346 27.1525 23.5204 21.8567 24.7836C17.8658 25.7371 15.047 23.2378 14.907 23.1248L16.5436 20.886Z" fill="black"/>
</svg>
