<svg width="109" height="19" viewBox="0 0 109 19" fill="none" xmlns="http://www.w3.org/2000/svg">
<path fill-rule="evenodd" clip-rule="evenodd" d="M76.2228 6.60337H80.7653C80.7099 3.56566 78.0842 0.665852 71.9825 0.611136C67.4409 0.583778 61.9419 2.44445 61.9145 9.25727C61.8865 16.0147 67.4954 18.1213 71.9825 18.012C76.1142 17.8752 80.7099 16.726 80.9019 11.6371L76.3329 11.6645C76.1963 14.8382 73.6518 15.4674 71.9825 15.4948C70.2586 15.4948 66.7296 15.1396 66.6749 9.33919C66.6203 3.86756 69.8481 3.10105 71.9825 3.10105C74.0897 3.1284 76.1963 4.11362 76.2228 6.60337ZM83.0904 0.912556H87.5221V7.6153H96.4968V0.912556H100.929V17.6561H96.4968V10.2692H87.5221V17.6561H83.0904V0.912556ZM21.532 0.912556H26.0189V17.6561H21.532V0.912556ZM104.513 0.912556H109V17.6561H104.513V0.912556ZM27.6602 0.912556H45.0883V3.70293H38.5768V17.6561H34.1718V3.70293H27.6602V0.912556ZM0 0.912556H4.4325V7.6153H13.4058V0.912556H17.8655V17.6561H13.4058V10.2692H4.4325V17.6561H0V0.912556ZM56.1962 13.9083L57.7281 17.6561H62.7351L54.8283 0.939756H49.2194L41.258 17.6561H46.2377L47.7976 13.9083H56.1962ZM48.9188 11.2544L52.0099 3.785L55.0744 11.2544H48.9188Z" fill="#EF3D43"/>
</svg>
