<svg width="88" height="15" viewBox="0 0 88 15" fill="none" xmlns="http://www.w3.org/2000/svg">
<path fill-rule="evenodd" clip-rule="evenodd" d="M61.1881 5.05573H64.8345C64.7901 2.61232 62.6822 0.279845 57.7841 0.235834C54.1383 0.213828 49.724 1.71047 49.702 7.19041C49.6796 12.6258 54.1821 14.3203 57.7841 14.2324C61.1009 14.1223 64.7901 13.198 64.9442 9.10465L61.2764 9.12666C61.1667 11.6795 59.1242 12.1856 57.7841 12.2076C56.4003 12.2076 53.5673 11.9219 53.5234 7.25631C53.4796 2.85516 56.0707 2.23861 57.7841 2.23861C59.4757 2.26062 61.1667 3.05308 61.1881 5.05573ZM66.701 0.478283H70.2586V5.86968H77.4631V0.478283H81.0206V13.946H77.4631V8.00437H70.2586V13.946H66.701V0.478283ZM17.2849 0.478283H20.8867V13.946H17.2849V0.478283ZM83.898 0.478283H87.5V13.946H83.898V0.478283ZM22.2043 0.478283H36.1947V2.72274H30.9676V13.946H27.4315V2.72274H22.2043V0.478283ZM0 0.478283H3.5582V5.86968H10.7615V0.478283H14.3416V13.946H10.7615V8.00437H3.5582V13.946H0V0.478283ZM45.1116 10.9315L46.3414 13.946H50.3608L44.0135 0.500162H39.511L33.12 13.946H37.1174L38.3696 10.9315H45.1116ZM39.2697 8.79683L41.7511 2.78876L44.2111 8.79683H39.2697Z" fill="#EF3D43"/>
</svg>
