<svg width="99" height="20" viewBox="0 0 99 20" fill="none" xmlns="http://www.w3.org/2000/svg">
<path d="M1.90697 7.93445C1.9972 9.60369 3.25195 10.5934 3.25195 10.5934C5.27647 12.5643 10.177 15.0569 11.3134 15.6237C11.3303 15.6265 11.3895 15.6462 11.4233 15.6039C11.4233 15.6039 11.4713 15.5644 11.4459 15.5024C8.32734 8.69012 4.06119 3.52451 4.06119 3.52451C4.06119 3.52451 1.74061 5.72666 1.90697 7.93445Z" fill="#E52428"/>
<path d="M2.4043 17.4988C3.28967 19.0778 4.78127 20.3016 6.33208 19.9237C7.40355 19.6587 9.83128 17.9641 10.6321 17.3917H10.6292C10.6885 17.3325 10.6687 17.2902 10.6687 17.2902C10.649 17.2197 10.5644 17.2197 10.5644 17.2197V17.2169L2.4043 17.4988Z" fill="#E52428"/>
<path d="M0.450812 13.836C1.33619 15.7055 3.02516 16.2722 3.02516 16.2722C3.80903 16.5908 4.58725 16.6134 4.58725 16.6134C4.7085 16.6359 9.43706 16.6162 10.7059 16.6106C10.7595 16.6106 10.7877 16.557 10.7877 16.557C10.83 16.4921 10.7595 16.4358 10.7595 16.4358C7.1757 14.0165 0.233699 10.3058 0.233699 10.3058C-0.397905 12.2598 0.450812 13.836 0.450812 13.836Z" fill="#E52428"/>
<path d="M7.34737 2.76887C6.95262 4.00388 7.35865 5.35732 7.35865 5.35732C8.08048 8.55481 11.6276 13.8135 12.3889 14.916C12.4425 14.9695 12.4848 14.947 12.4848 14.947C12.5666 14.9272 12.5609 14.8455 12.5609 14.8455H12.5637C13.7367 3.11287 11.3315 -3.05176e-05 11.3315 -3.05176e-05C10.9763 0.0338054 10.0204 0.250919 10.0204 0.250919C7.85773 0.812031 7.34737 2.76887 7.34737 2.76887Z" fill="#E52428"/>
<path d="M13.9721 14.8567C13.9834 14.9301 14.0342 14.947 14.0342 14.947C14.1131 14.978 14.1526 14.9019 14.1526 14.9019C14.9364 13.7712 18.4638 8.54354 19.18 5.35732C19.18 5.35732 19.5691 3.81497 19.1941 2.76887C19.1941 2.76887 18.6612 0.778195 16.4957 0.253739C16.4957 0.253739 15.8726 0.0958379 15.2128 -3.05176e-05C15.2128 -3.05176e-05 12.7935 3.11287 13.9721 14.8567Z" fill="#E52428"/>
<path d="M15.9642 17.2196C15.9642 17.2196 15.8937 17.2281 15.874 17.2816C15.874 17.2816 15.8571 17.3549 15.905 17.3916C16.6861 17.9527 19.0546 19.6079 20.1937 19.9293C20.1937 19.9293 22.3028 20.6483 24.1356 17.4988L15.9642 17.2196Z" fill="#E52428"/>
<path d="M15.7834 16.4273C15.7834 16.4301 15.7185 16.4724 15.7411 16.5486C15.7411 16.5486 15.7749 16.6078 15.8229 16.6078C17.1058 16.6106 21.9669 16.6162 22.0881 16.5965C22.0881 16.5965 22.7141 16.5683 23.4923 16.2722C23.4923 16.2722 25.2208 15.7224 26.1203 13.7599C26.1203 13.7599 26.921 12.1612 26.3007 10.2889C26.3035 10.2889 19.37 14.0137 15.7834 16.4273Z" fill="#E52428"/>
<path d="M15.1038 15.4714C15.1038 15.4714 15.07 15.5503 15.1264 15.6039C15.1264 15.6039 15.1856 15.6434 15.2363 15.6124C16.4037 15.0315 21.2676 12.5559 23.2836 10.5934C23.2836 10.5934 24.5581 9.56703 24.6286 7.92317C24.7724 5.63925 22.4744 3.52451 22.4744 3.52451C22.4744 3.52451 18.2195 8.6732 15.1038 15.4714Z" fill="#E52428"/>
<path d="M41.2491 9.8265H35.982V5.61957H33.6191V16.0128H35.982V11.6762H41.2491V16.0128H43.6205V5.61957H41.2491V9.8265Z" fill="#2B2523"/>
<path d="M52.9717 11.8482C52.9717 13.6809 52.4106 14.4451 50.4509 14.4451C48.4913 14.4451 47.9132 13.6809 47.9132 11.8482V5.61954H45.5645V11.8989C45.5645 13.2157 45.6885 14.1321 46.2045 14.6904C47.1237 15.7111 48.4913 16.1228 50.4509 16.1228C52.4106 16.1228 53.7527 15.7111 54.6776 14.6904C55.1823 14.1434 55.3374 13.2298 55.3374 11.8989V5.61954H52.9689V11.8482H52.9717Z" fill="#2B2523"/>
<path d="M60.5612 5.61954L55.7988 16.0128H58.3055L59.3065 13.54H64.1901L65.2249 16.0128H67.8585L63.0651 5.61954H60.5612ZM60.0734 11.6846L61.7201 7.69481L63.426 11.6846H60.0734Z" fill="#2B2523"/>
<path d="M79.0368 13.6104L76.516 5.61954H73.7274L71.5337 13.6104L68.9311 5.61954H66.3906L70.1408 16.0128H73.0196L75.1175 8.2531L77.5142 16.0128H80.4184L83.8894 5.61954H81.4673L79.0368 13.6104Z" fill="#2B2523"/>
<path d="M84.4004 11.0051C84.4004 12.8858 84.9643 14.2505 86.1232 15.0993C87.2201 15.9085 88.269 16.0128 89.6309 16.0128H93.6263V14.2054H89.7436C87.8827 14.2054 87.0819 13.5202 87.065 11.6593H93.6263V9.84623H87.0819C87.1806 8.21646 88.0349 7.43542 89.7436 7.43542H93.6263V5.62238H89.6929C86.0753 5.61956 84.4004 7.33391 84.4004 11.0051Z" fill="#2B2523"/>
<path d="M98.18 5.61954H95.71V16.01H98.18V5.61954Z" fill="#2B2523"/>
</svg>
