<svg width="123" height="25" viewBox="0 0 123 25" fill="none" xmlns="http://www.w3.org/2000/svg">
<path d="M2.38469 9.91807C2.49748 12.0046 4.06591 13.2417 4.06591 13.2417C6.59656 15.7054 12.7223 18.8211 14.1427 19.5296C14.1638 19.5331 14.2378 19.5578 14.2801 19.5049C14.2801 19.5049 14.34 19.4556 14.3083 19.378C10.4101 10.8627 5.07747 4.40564 5.07747 4.40564C5.07747 4.40564 2.17674 7.15833 2.38469 9.91807Z" fill="#E52428"/>
<path d="M3.00684 21.8735C4.11355 23.8473 5.97805 25.3769 7.91657 24.9046C9.2559 24.5733 12.2906 22.4551 13.2915 21.7396H13.288C13.362 21.6656 13.3374 21.6127 13.3374 21.6127C13.3127 21.5246 13.207 21.5246 13.207 21.5246V21.5211L3.00684 21.8735Z" fill="#E52428"/>
<path d="M0.563515 17.2951C1.67023 19.6319 3.78145 20.3403 3.78145 20.3403C4.76128 20.7386 5.73406 20.7668 5.73406 20.7668C5.88562 20.795 11.7963 20.7703 13.3824 20.7633C13.4494 20.7633 13.4846 20.6963 13.4846 20.6963C13.5375 20.6152 13.4494 20.5447 13.4494 20.5447C8.96962 17.5207 0.292123 12.8823 0.292123 12.8823C-0.497381 15.3249 0.563515 17.2951 0.563515 17.2951Z" fill="#E52428"/>
<path d="M9.18544 3.46113C8.692 5.00489 9.19954 6.69669 9.19954 6.69669C10.1018 10.6936 14.5357 17.2669 15.4874 18.645C15.5543 18.712 15.6072 18.6838 15.6072 18.6838C15.7094 18.6591 15.7024 18.5569 15.7024 18.5569H15.7059C17.1721 3.89113 14.1657 0 14.1657 0C13.7216 0.0422949 12.5267 0.313687 12.5267 0.313687C9.82339 1.01508 9.18544 3.46113 9.18544 3.46113Z" fill="#E52428"/>
<path d="M17.4642 18.571C17.4783 18.6626 17.5417 18.6838 17.5417 18.6838C17.6404 18.7225 17.6897 18.6274 17.6897 18.6274C18.6696 17.214 23.0788 10.6795 23.9741 6.69669C23.9741 6.69669 24.4605 4.76875 23.9917 3.46113C23.9917 3.46113 23.3255 0.972782 20.6187 0.317212C20.6187 0.317212 19.8397 0.119835 19.015 0C19.015 0 15.9909 3.89113 17.4642 18.571Z" fill="#E52428"/>
<path d="M19.9553 21.5245C19.9553 21.5245 19.8672 21.5351 19.8425 21.6021C19.8425 21.6021 19.8213 21.6937 19.8813 21.7395C20.8576 22.4409 23.8182 24.5098 25.2421 24.9117C25.2421 24.9117 27.8785 25.8104 30.1695 21.8735L19.9553 21.5245Z" fill="#E52428"/>
<path d="M19.7297 20.5341C19.7297 20.5377 19.6487 20.5905 19.6769 20.6857C19.6769 20.6857 19.7191 20.7597 19.7791 20.7597C21.3827 20.7632 27.4591 20.7703 27.6107 20.7456C27.6107 20.7456 28.3931 20.7104 29.3659 20.3403C29.3659 20.3403 31.5265 19.653 32.6508 17.1999C32.6508 17.1999 33.6518 15.2015 32.8764 12.8611C32.8799 12.8611 24.213 17.5171 19.7297 20.5341Z" fill="#E52428"/>
<path d="M18.8798 19.3393C18.8798 19.3393 18.8375 19.4379 18.908 19.5049C18.908 19.5049 18.982 19.5543 19.0454 19.5155C20.5046 18.7894 26.5845 15.6948 29.1046 13.2417C29.1046 13.2417 30.6977 11.9588 30.7858 9.90397C30.9655 7.04907 28.093 4.40564 28.093 4.40564C28.093 4.40564 22.7744 10.8415 18.8798 19.3393Z" fill="#E52428"/>
<path d="M51.5609 12.2831H44.977V7.02448H42.0234V20.0161H44.977V14.5953H51.5609V20.0161H54.5251V7.02448H51.5609V12.2831Z" fill="#2B2523"/>
<path d="M66.2122 14.8103C66.2122 17.1012 65.5108 18.0564 63.0612 18.0564C60.6116 18.0564 59.8891 17.1012 59.8891 14.8103V7.02448H56.9531V14.8737C56.9531 16.5197 57.1082 17.6652 57.7532 18.363C58.9022 19.6389 60.6116 20.1535 63.0612 20.1535C65.5108 20.1535 67.1885 19.6389 68.3445 18.363C68.9754 17.6793 69.1693 16.5373 69.1693 14.8737V7.02448H66.2087V14.8103H66.2122Z" fill="#2B2523"/>
<path d="M75.7001 7.02448L69.7471 20.0161H72.8804L74.1316 16.925H80.2362L81.5297 20.0161H84.8217L78.8299 7.02448H75.7001ZM75.0903 14.6058L77.1487 9.61856L79.281 14.6058H75.0903Z" fill="#2B2523"/>
<path d="M98.797 17.0131L95.646 7.02448H92.1602L89.4181 17.0131L86.1649 7.02448H82.9893L87.6769 20.0161H91.2755L93.8978 10.3164L96.8937 20.0161H100.524L104.863 7.02448H101.835L98.797 17.0131Z" fill="#2B2523"/>
<path d="M105.501 13.7564C105.501 16.1073 106.206 17.8132 107.654 18.8741C109.026 19.8857 110.337 20.0161 112.039 20.0161H117.033V17.7568H112.18C109.854 17.7568 108.853 16.9003 108.832 14.5741H117.033V12.3078H108.853C108.976 10.2706 110.044 9.29432 112.18 9.29432H117.033V7.02802H112.117C107.595 7.02449 105.501 9.16743 105.501 13.7564Z" fill="#2B2523"/>
<path d="M122.725 7.02448H119.638V20.0125H122.725V7.02448Z" fill="#2B2523"/>
</svg>
