<svg width="73" height="20" viewBox="0 0 73 20" fill="none" xmlns="http://www.w3.org/2000/svg">
<g clip-path="url(#clip0)">
<path d="M72.4997 7.0547C71.7443 7.0547 70.989 7.0547 70.2248 7.04588C70.1282 7.04588 70.093 7.07233 70.1018 7.16933C70.1106 7.23106 70.1018 7.28397 70.1018 7.3457C70.1018 10.1411 70.1018 12.9453 70.1018 15.7408C70.1018 16.0406 70.1369 16.0053 69.8295 16.0053C69.0829 16.0053 68.3451 16.0053 67.5985 16.0053C67.3525 16.0053 67.3701 16.0318 67.3701 15.776C67.3701 13.0071 67.3701 10.2381 67.3701 7.46916C67.3701 7.38979 67.3701 7.31043 67.3701 7.22224C67.3701 7.03706 67.3701 7.03706 67.1769 7.03706C66.808 7.03706 66.439 7.03706 66.0701 7.03706C66.0262 7.03706 65.9823 7.03706 65.9384 7.03706C65.8505 7.04588 65.7978 7.0106 65.8066 6.9136C65.8066 6.8166 65.8066 6.7196 65.8066 6.6226C65.8066 6.15523 65.8066 5.68785 65.8066 5.2293C65.8066 5.01766 65.8066 5.01766 66.0086 5.01766C66.3951 5.01766 66.7728 5.01766 67.1593 5.01766C67.4052 5.01766 67.3789 5.01766 67.3789 4.80602C67.3789 3.65082 67.3789 2.50443 67.3789 1.34923C67.3789 1.30514 67.3789 1.26104 67.3789 1.21695C67.3789 1.02295 67.3789 1.02295 67.5721 1.02295C68.3451 1.02295 69.118 1.02295 69.891 1.02295C70.1106 1.02295 70.1106 1.02295 70.1106 1.23459C70.1106 2.39861 70.1106 3.55381 70.1106 4.71783C70.1106 4.77074 70.1194 4.82366 70.1106 4.87657C70.093 5.00002 70.1457 5.02648 70.2599 5.02648C70.9977 5.02648 71.7356 5.02648 72.4646 5.02648C72.4822 5.02648 72.491 5.01766 72.5085 5.00884V7.0547H72.4997Z" fill="#3C2D66"/>
<path d="M18.6916 19.9912C12.5606 19.9912 6.42085 19.9912 0.289887 19.9912C-0.00875649 19.9912 2.71099e-05 20.0353 2.71099e-05 19.709C2.71099e-05 19.224 2.71099e-05 18.739 2.71099e-05 18.2451C2.71099e-05 18.0511 2.71065e-05 18.0511 0.193267 18.0511C0.254752 18.0511 0.307454 18.0511 0.368939 18.0511H34.3352C34.6426 18.0511 34.6426 18.0511 34.6426 17.7337C34.6426 17.5132 34.6426 17.2928 34.6426 17.0723C34.6426 16.8783 34.6426 16.8783 34.8271 16.8783C35.3453 16.8783 35.8548 16.8783 36.373 16.8783C36.6541 16.8783 36.9351 16.8783 37.2074 16.8783C37.3919 16.8783 37.3919 16.8783 37.3919 17.0547C37.3919 17.8395 37.3919 18.6155 37.3919 19.4003C37.3919 19.5591 37.3919 19.709 37.3919 19.8677C37.3919 19.9647 37.3568 20 37.2601 20C37.1987 19.9912 37.146 20 37.0845 20L18.6916 19.9912Z" fill="#3C2D66"/>
<path d="M7.528 6.48149C7.79151 6.12876 8.07259 5.82012 8.40637 5.56439C8.99487 5.10583 9.66242 4.84128 10.4002 4.7531C11.059 4.66492 11.709 4.72665 12.3326 4.96474C13.2637 5.30866 13.9137 5.97003 14.3177 6.87832C14.5637 7.42506 14.6867 8.00707 14.7481 8.60671C14.7833 8.97708 14.7833 9.34746 14.7833 9.70901C14.7833 11.6402 14.7833 13.5626 14.7833 15.4938C14.7833 15.7848 14.8272 15.7848 14.4846 15.7848C13.7732 15.7848 13.0529 15.7848 12.3414 15.7848C12.2975 15.7848 12.2536 15.7848 12.2097 15.7848C12.0955 15.7937 12.0516 15.7319 12.0604 15.6261C12.0604 15.5732 12.0604 15.5203 12.0604 15.4674C12.0604 13.5362 12.0604 11.6138 12.0604 9.68255C12.0604 9.25927 12.034 8.84481 11.911 8.43035C11.8144 8.10407 11.6827 7.80425 11.4631 7.54851C11.0151 7.02823 10.4178 6.86068 9.76783 6.94887C8.80163 7.07232 8.20434 7.66315 7.87057 8.56262C7.77395 8.81835 7.75638 9.09172 7.75638 9.36509C7.75638 11.4021 7.75638 13.4392 7.75638 15.485C7.75638 15.8113 7.8003 15.7848 7.46652 15.7848C6.74626 15.7848 6.02601 15.7848 5.30575 15.7848C5.24426 15.7848 5.19156 15.7848 5.13008 15.7848C5.05981 15.7848 5.02467 15.7408 5.02467 15.6702C5.02467 15.6173 5.02467 15.5644 5.02467 15.5115V5.1852C5.02467 4.92947 5.0071 4.93829 5.26183 4.9471C5.92939 4.9471 6.59694 4.9471 7.27328 4.95592C7.30841 4.95592 7.34355 4.95592 7.38747 4.95592C7.49287 4.93829 7.528 4.9912 7.528 5.10583C7.51922 5.48502 7.528 5.85539 7.528 6.23458C7.528 6.31395 7.528 6.39331 7.528 6.48149Z" fill="#379CD1"/>
<path d="M51.1644 11.1287H47.8354C47.7739 11.1287 47.7212 11.1287 47.6597 11.1287C47.5982 11.1287 47.5719 11.1552 47.5719 11.2257C47.6333 12.2222 48.0637 12.9894 48.9509 13.4744C49.4691 13.7654 50.0401 13.8889 50.6198 13.9153C51.665 13.9506 52.6927 13.8448 53.6853 13.5009C53.8697 13.4391 53.8785 13.4391 53.9136 13.6331C54.019 14.1358 54.1244 14.6384 54.2386 15.1499C54.2738 15.3263 54.2738 15.3263 54.1069 15.388C53.5096 15.6084 52.9035 15.776 52.2799 15.873C51.5684 15.9876 50.8481 16.0405 50.1279 16.0053C49.311 15.97 48.5205 15.8113 47.7827 15.4585C46.4388 14.8148 45.578 13.7566 45.2003 12.3192C44.7611 10.6349 44.8929 8.98586 45.6922 7.43383C46.4476 5.95235 47.6509 5.05288 49.3022 4.77951C50.1279 4.64724 50.9448 4.67369 51.7441 4.91179C52.9474 5.27334 53.7731 6.06699 54.3001 7.18692C54.6251 7.89239 54.792 8.63313 54.8535 9.40914C54.8974 9.92061 54.871 10.4233 54.8096 10.9347C54.792 11.1023 54.8096 11.1199 54.59 11.1199C53.4481 11.1287 52.3062 11.1287 51.1644 11.1287ZM49.9346 9.22396C50.6725 9.22396 51.4015 9.22396 52.1393 9.22396C52.3062 9.22396 52.315 9.21514 52.3062 9.04759C52.2711 8.54495 52.1833 8.05112 51.9285 7.6102C51.788 7.37211 51.6211 7.16047 51.4015 6.99292C50.5759 6.37563 49.3022 6.44618 48.5468 7.14283C48.0023 7.64547 47.73 8.28921 47.5982 9.0035C47.5982 9.02114 47.5894 9.04759 47.5894 9.07405C47.5806 9.22396 47.5894 9.22396 47.73 9.23278C47.7739 9.23278 47.8178 9.23278 47.8617 9.23278H49.9346V9.22396Z" fill="#379CD1"/>
<path d="M31.7181 13.448C31.7971 13.6949 31.8322 13.9242 31.8762 14.1534C31.9464 14.4974 32.0167 14.8501 32.0958 15.194C32.1221 15.3175 32.0782 15.3527 31.9903 15.388C31.4633 15.5908 30.9187 15.7407 30.3566 15.8466C29.5749 15.9965 28.7843 16.0582 27.985 16.0141C27.0012 15.97 26.0614 15.7496 25.2094 15.2381C24.1027 14.5767 23.3912 13.6155 23.0574 12.3721C22.6006 10.6526 22.7324 8.96826 23.5668 7.38096C24.3486 5.89066 25.5959 5.00882 27.256 4.76191C28.1256 4.62964 28.9863 4.69136 29.8208 4.99119C30.9714 5.41447 31.7356 6.22576 32.2099 7.33687C32.5261 8.08643 32.693 8.87126 32.7106 9.68254C32.7194 10.1146 32.7282 10.5379 32.6579 10.9612C32.6316 11.1111 32.6316 11.1199 32.4822 11.1199C32.4295 11.1199 32.3768 11.1199 32.3241 11.1199C30.1107 11.1199 27.8972 11.1199 25.6749 11.1199C25.3938 11.1199 25.4026 11.1199 25.429 11.4021C25.4817 11.8254 25.6046 12.2222 25.833 12.5838C26.158 13.0952 26.6236 13.4303 27.1769 13.642C27.6249 13.8183 28.0992 13.8977 28.5823 13.9065C29.6539 13.9418 30.6904 13.8272 31.7181 13.448ZM27.783 9.22399C28.512 9.22399 29.2411 9.22399 29.9701 9.22399C30.1546 9.22399 30.1546 9.22399 30.1546 9.03881C30.1458 8.50971 30.0228 8.01588 29.7593 7.55732C29.5661 7.22223 29.3026 6.95768 28.9512 6.79013C28.2924 6.49031 27.6161 6.46385 26.9661 6.77249C25.9911 7.23105 25.6046 8.11288 25.4378 9.10935C25.4202 9.18872 25.4641 9.21517 25.5344 9.21517C25.5871 9.21517 25.6398 9.21517 25.6925 9.21517H27.783V9.22399Z" fill="#379CD1"/>
<path d="M55.1696 19.9912C51.2345 19.9912 47.2907 19.9912 43.3556 19.9912C42.3982 19.9912 41.4408 19.9912 40.4922 19.9912C40.4395 19.9912 40.3868 19.9912 40.3341 19.9912C40.2638 19.9912 40.2199 19.9648 40.2287 19.8854C40.2287 19.8501 40.2287 19.8149 40.2287 19.7708C40.2287 18.8713 40.2287 17.9718 40.2287 17.0635C40.2287 16.8607 40.2287 16.8607 40.4307 16.8607C41.2124 16.8607 41.9854 16.8607 42.7671 16.8607C42.9604 16.8607 42.9604 16.8607 42.9604 17.0547C42.9604 17.3369 42.9691 17.6191 42.9604 17.9013C42.9604 18.0159 42.9955 18.06 43.1097 18.0512C43.1712 18.0424 43.2239 18.0512 43.2854 18.0512C52.1217 18.0512 60.9668 18.0512 69.8031 18.0512C70.1369 18.0512 70.093 17.9983 70.093 18.3422C70.093 18.8272 70.093 19.321 70.093 19.806C70.093 19.9824 70.093 19.9912 69.9085 19.9912C69.3551 19.9912 68.8106 19.9912 68.2572 19.9912H55.1696Z" fill="#3C2D66"/>
<path d="M20.0442 11.2257V15.388C20.0442 15.4409 20.0442 15.4938 20.0442 15.5467C20.053 15.6613 20.0091 15.7054 19.8949 15.7054C19.6753 15.6966 19.4557 15.7054 19.2361 15.7054C18.6652 15.7054 18.0855 15.7054 17.5145 15.7054C17.3389 15.7054 17.3389 15.7054 17.3389 15.5379C17.3389 15.485 17.3389 15.432 17.3389 15.3791C17.3389 12.5837 17.3389 9.79713 17.3389 7.00171C17.3389 6.73716 17.3828 6.71952 17.0666 6.71952C16.6889 6.71952 16.32 6.71952 15.9423 6.71952C15.7754 6.71952 15.7666 6.71071 15.7666 6.54316C15.7666 5.99642 15.7666 5.44968 15.7666 4.90295C15.7666 4.71776 15.7754 4.71776 15.9511 4.70894C16.3375 4.70894 16.7152 4.70894 17.1017 4.70894C17.3389 4.70894 17.3477 4.70894 17.3477 4.47085C17.3477 3.33328 17.3477 2.19571 17.3477 1.05815C17.3477 1.01406 17.3477 0.969965 17.3477 0.925874C17.3477 0.723052 17.3477 0.714233 17.5497 0.714233C18.2172 0.714233 18.8848 0.714233 19.5611 0.714233C19.6753 0.714233 19.7983 0.714233 19.9125 0.714233C20.0091 0.714233 20.0706 0.740688 20.0618 0.855327C20.0618 0.908237 20.0618 0.961147 20.0618 1.01406C20.0618 2.15162 20.0618 3.28919 20.0618 4.42676C20.0618 4.48848 20.0618 4.54139 20.0618 4.60312C20.0618 4.67367 20.0881 4.71776 20.1672 4.70894C20.2199 4.70894 20.2726 4.70894 20.3253 4.70894C20.9841 4.70894 21.6341 4.70894 22.2928 4.70894C22.4773 4.70894 22.4773 4.70894 22.4773 4.88531C22.4773 5.43205 22.4773 5.97878 22.4773 6.52552C22.4773 6.70189 22.4773 6.71071 22.284 6.71071C21.6341 6.71071 20.9929 6.71071 20.3429 6.71071C20.2902 6.71071 20.2375 6.71071 20.1848 6.71071C20.1057 6.71071 20.0618 6.74598 20.0618 6.82534C20.0618 6.88707 20.0618 6.93998 20.0618 7.00171C20.0442 8.41265 20.0442 9.81476 20.0442 11.2257Z" fill="#379CD1"/>
<path d="M61.8548 16.0141C60.7393 16.0141 59.7906 15.8378 58.9035 15.388C57.6474 14.7443 56.8393 13.7302 56.4265 12.3898C56.1981 11.6402 56.1191 10.873 56.163 10.0882C56.242 8.79191 56.6461 7.61907 57.5069 6.62259C58.0954 5.94358 58.8156 5.45857 59.6413 5.14111C60.5812 4.77956 61.5649 4.6561 62.5663 4.71783C63.1811 4.75311 63.796 4.85893 64.3845 5.06175C64.4459 5.07938 64.5074 5.10584 64.5689 5.12348C64.7885 5.22048 64.7973 5.20284 64.7358 5.44094C64.5953 5.98767 64.4723 6.54323 64.3405 7.09878C64.3054 7.2487 64.2966 7.2487 64.1561 7.19579C63.5237 6.93124 62.8561 6.82542 62.171 6.84305C60.5636 6.87833 59.3866 7.83071 59.044 9.40919C58.8596 10.2646 58.9035 11.1111 59.246 11.9312C59.6589 12.9189 60.3967 13.5185 61.4244 13.7478C62.3554 13.9506 63.2689 13.8272 64.1561 13.5097C64.3845 13.4304 64.3932 13.4215 64.4372 13.6684C64.5426 14.2152 64.6304 14.7531 64.7446 15.2998C64.7709 15.4145 64.7358 15.4586 64.6392 15.4938C64.1209 15.7055 63.5764 15.8378 63.023 15.9171C62.5838 15.9877 62.1534 16.0229 61.8548 16.0141Z" fill="#379CD1"/>
<path d="M37.4008 7.90123C37.4008 10.4321 37.4008 12.9718 37.4008 15.5026C37.4008 15.8025 37.4272 15.7848 37.1285 15.7848H34.9414C34.8887 15.7848 34.836 15.7848 34.7833 15.7848C34.6955 15.7848 34.6428 15.7496 34.6516 15.6526C34.6516 15.5996 34.6516 15.5467 34.6516 15.4938C34.6516 10.4233 34.6516 5.36155 34.6516 0.291005C34.6516 -0.026455 34.6164 0.00881834 34.9326 0C35.6617 0 36.3907 0 37.1197 0C37.1724 0 37.2251 0 37.2779 0C37.3569 0 37.4008 0.0352734 37.4008 0.114638C37.4008 0.185185 37.4008 0.246914 37.4008 0.31746C37.4008 2.84832 37.4008 5.37037 37.4008 7.90123Z" fill="#379CD1"/>
<path d="M42.9608 7.87472C42.9608 10.4144 42.9608 12.9541 42.9608 15.5026C42.9608 15.7936 42.9872 15.7848 42.6885 15.7848C41.9507 15.7848 41.2129 15.7848 40.4839 15.7848C40.4312 15.7848 40.3785 15.7848 40.3258 15.7848C40.2555 15.7848 40.2204 15.7495 40.2204 15.679C40.2204 15.626 40.2204 15.5731 40.2204 15.5202C40.2204 10.4409 40.2204 5.35268 40.2204 0.273313C40.2204 -0.00887401 40.194 0.00876266 40.4839 0.00876266C41.2305 0.00876266 41.9683 0.00876266 42.7149 0.00876266C42.7588 0.00876266 42.8027 0.00876266 42.8466 0.00876266C42.9257 0.00876266 42.9696 0.044036 42.9696 0.123401C42.9696 0.193948 42.9696 0.255676 42.9696 0.326223C42.9608 2.83945 42.9608 5.35268 42.9608 7.87472Z" fill="#379CD1"/>
<path d="M0 10.2293V4.99998C0 4.96471 0 4.92944 0 4.88535C0 4.67371 0 4.67371 0.21959 4.67371C0.992549 4.67371 1.76551 4.67371 2.53847 4.67371C2.73171 4.67371 2.73171 4.67371 2.73171 4.86771C2.73171 8.43914 2.73171 12.0194 2.73171 15.5908C2.73171 15.776 2.73171 15.776 2.55603 15.776C1.77429 15.776 0.992549 15.776 0.21959 15.776C0 15.776 0 15.776 0 15.5732C0 13.7919 0 12.0106 0 10.2293Z" fill="#3C2D66"/>
<path d="M1.35267 3.5626C0.957404 3.5626 0.562141 3.5626 0.158094 3.5626C-0.0175781 3.5626 -0.0175781 3.5626 -0.0175781 3.40387C-0.0175781 2.59258 -0.0175781 1.7813 -0.0175781 0.970009C-0.0175781 0.811279 -0.0175781 0.811279 0.140527 0.811279C0.957404 0.811279 1.77428 0.811279 2.59116 0.811279C2.74048 0.811279 2.74926 0.811279 2.74926 0.970009C2.74926 1.7813 2.74926 2.59258 2.74926 3.40387C2.74926 3.5626 2.74926 3.5626 2.57359 3.5626C2.16076 3.5626 1.75671 3.5626 1.35267 3.5626Z" fill="#3C2D66"/>
</g>
<defs>
<clipPath id="clip0">
<rect width="72.5" height="20" fill="white"/>
</clipPath>
</defs>
</svg>
