<svg width="102" height="28" viewBox="0 0 102 28" fill="none" xmlns="http://www.w3.org/2000/svg">
<path d="M101.924 9.87657C100.863 9.87657 99.7886 9.87657 98.7268 9.86422C98.591 9.86422 98.5416 9.90126 98.554 10.0371C98.5663 10.1235 98.554 10.1976 98.554 10.284C98.554 14.1976 98.554 18.1235 98.554 22.0371C98.554 22.4568 98.6034 22.4074 98.1713 22.4074C97.1219 22.4074 96.0849 22.4074 95.0355 22.4074C94.6898 22.4074 94.7145 22.4445 94.7145 22.0864C94.7145 18.2099 94.7145 14.3334 94.7145 10.4568C94.7145 10.3457 94.7145 10.2346 94.7145 10.1111C94.7145 9.85188 94.7145 9.85188 94.4429 9.85188C93.9244 9.85188 93.4058 9.85188 92.8873 9.85188C92.8256 9.85188 92.7639 9.85188 92.7021 9.85188C92.5787 9.86422 92.5046 9.81484 92.517 9.67904C92.517 9.54323 92.517 9.40743 92.517 9.27163C92.517 8.61731 92.517 7.96299 92.517 7.32101C92.517 7.02472 92.517 7.02472 92.8009 7.02472C93.3441 7.02472 93.875 7.02472 94.4182 7.02472C94.7639 7.02472 94.7268 7.02472 94.7268 6.72842C94.7268 5.11114 94.7268 3.5062 94.7268 1.88892C94.7268 1.82719 94.7268 1.76546 94.7268 1.70373C94.7268 1.43213 94.7268 1.43213 94.9984 1.43213C96.0849 1.43213 97.1713 1.43213 98.2577 1.43213C98.5663 1.43213 98.5663 1.43213 98.5663 1.72842C98.5663 3.35805 98.5663 4.97534 98.5663 6.60496C98.5663 6.67904 98.5787 6.75311 98.5663 6.82719C98.5293 7.01237 98.6034 7.04941 98.7639 7.04941C99.8009 7.04941 100.838 7.04941 101.863 7.04941C101.887 7.04941 101.9 7.03706 101.924 7.02472V9.87657Z" fill="#3C2D66"/>
<path d="M26.296 27.9875C17.6788 27.9875 9.04914 27.9875 0.431859 27.9875C0.0121065 27.9875 0.0244522 28.0493 0.0244522 27.5925C0.0244522 26.9135 0.0244522 26.2345 0.0244522 25.5431C0.0244522 25.2715 0.0244522 25.2715 0.296057 25.2715C0.382477 25.2715 0.456551 25.2715 0.54297 25.2715H48.2837C48.7158 25.2715 48.7158 25.2715 48.7158 24.827C48.7158 24.5184 48.7158 24.2098 48.7158 23.9011C48.7158 23.6295 48.7158 23.6295 48.975 23.6295C49.7034 23.6295 50.4195 23.6295 51.1479 23.6295C51.5429 23.6295 51.938 23.6295 52.3207 23.6295C52.58 23.6295 52.58 23.6295 52.58 23.8764C52.58 24.9752 52.58 26.0616 52.58 27.1604C52.58 27.3826 52.58 27.5925 52.58 27.8147C52.58 27.9505 52.5306 27.9999 52.3948 27.9999C52.3084 27.9875 52.2343 27.9999 52.1479 27.9999L26.296 27.9875Z" fill="#3C2D66"/>
<path d="M10.6038 9.07402C10.9742 8.58019 11.3693 8.14809 11.8384 7.79007C12.6656 7.14809 13.6038 6.77772 14.6409 6.65427C15.5668 6.53081 16.4804 6.61723 17.3569 6.95056C18.6656 7.43204 19.5791 8.35797 20.147 9.62957C20.4927 10.395 20.6656 11.2098 20.752 12.0493C20.8014 12.5678 20.8014 13.0864 20.8014 13.5925C20.8014 16.2962 20.8014 18.9876 20.8014 21.6913C20.8014 22.0987 20.8631 22.0987 20.3816 22.0987C19.3816 22.0987 18.3693 22.0987 17.3693 22.0987C17.3075 22.0987 17.2458 22.0987 17.1841 22.0987C17.0236 22.111 16.9619 22.0246 16.9742 21.8765C16.9742 21.8024 16.9742 21.7283 16.9742 21.6543C16.9742 18.9506 16.9742 16.2592 16.9742 13.5555C16.9742 12.9629 16.9372 12.3827 16.7643 11.8024C16.6285 11.3456 16.4433 10.9259 16.1347 10.5678C15.5051 9.83945 14.6656 9.60488 13.752 9.72834C12.394 9.90118 11.5545 10.7283 11.0853 11.9876C10.9495 12.3456 10.9248 12.7283 10.9248 13.1111C10.9248 15.9629 10.9248 18.8148 10.9248 21.6789C10.9248 22.1357 10.9866 22.0987 10.5174 22.0987C9.50508 22.0987 8.49273 22.0987 7.48039 22.0987C7.39397 22.0987 7.31989 22.0987 7.23347 22.0987C7.13471 22.0987 7.08532 22.037 7.08532 21.9382C7.08532 21.8641 7.08532 21.7901 7.08532 21.716V7.2592C7.08532 6.90118 7.06063 6.91353 7.41866 6.92587C8.35693 6.92587 9.2952 6.92587 10.2458 6.93822C10.2952 6.93822 10.3446 6.93822 10.4063 6.93822C10.5545 6.91353 10.6038 6.9876 10.6038 7.14809C10.5915 7.67896 10.6038 8.19748 10.6038 8.72834C10.6038 8.83945 10.6038 8.95056 10.6038 9.07402Z" fill="#379CD1"/>
<path d="M71.9385 15.5803H67.2595C67.1731 15.5803 67.099 15.5803 67.0126 15.5803C66.9262 15.5803 66.8891 15.6174 66.8891 15.7161C66.9755 17.1112 67.5805 18.1853 68.8274 18.8643C69.5558 19.2717 70.3583 19.4445 71.1731 19.4816C72.6422 19.5309 74.0866 19.3828 75.4817 18.9013C75.741 18.8149 75.7533 18.8149 75.8027 19.0865C75.9508 19.7902 76.099 20.4939 76.2595 21.2099C76.3089 21.4569 76.3089 21.4569 76.0743 21.5433C75.2348 21.8519 74.3829 22.0865 73.5064 22.2223C72.5064 22.3828 71.4941 22.4569 70.4817 22.4075C69.3336 22.3581 68.2224 22.1359 67.1854 21.642C65.2965 20.7408 64.0866 19.2593 63.5558 17.247C62.9385 14.889 63.1237 12.5803 64.2471 10.4075C65.3089 8.33341 67.0002 7.07416 69.3212 6.69144C70.4817 6.50625 71.6299 6.54329 72.7533 6.87663C74.4447 7.3828 75.6052 8.49391 76.3459 10.0618C76.8027 11.0495 77.0373 12.0865 77.1237 13.1729C77.1854 13.889 77.1484 14.5927 77.0619 15.3087C77.0373 15.5433 77.0619 15.568 76.7533 15.568C75.1484 15.5803 73.5434 15.5803 71.9385 15.5803ZM70.1978 12.9137C71.2348 12.9137 72.2595 12.9137 73.2965 12.9137C73.5311 12.9137 73.5434 12.9013 73.5311 12.6667C73.4817 11.963 73.3582 11.2717 73.0002 10.6544C72.8027 10.3211 72.5681 10.0248 72.2595 9.7902C71.099 8.92601 69.3089 9.02477 68.2471 10.0001C67.4817 10.7038 67.099 11.605 66.9138 12.605C66.9138 12.6297 66.9015 12.6667 66.9015 12.7038C66.8891 12.9137 66.9015 12.9137 67.099 12.926C67.1607 12.926 67.2224 12.926 67.2842 12.926H70.1978V12.9137Z" fill="#379CD1"/>
<path d="M44.606 18.8271C44.7171 19.1728 44.7665 19.4938 44.8282 19.8147C44.927 20.2962 45.0257 20.79 45.1369 21.2715C45.1739 21.4444 45.1122 21.4938 44.9887 21.5431C44.248 21.8271 43.4825 22.037 42.6924 22.1851C41.5937 22.395 40.4825 22.4814 39.3591 22.4197C37.9764 22.3579 36.6554 22.0493 35.4578 21.3333C33.9023 20.4073 32.9023 19.0617 32.4332 17.3209C31.7912 14.9135 31.9764 12.5555 33.1492 10.3333C34.248 8.24685 36.0011 7.01228 38.3344 6.6666C39.5566 6.48142 40.7665 6.56784 41.9393 6.98759C43.5566 7.58018 44.6307 8.71598 45.2973 10.2715C45.7418 11.3209 45.9764 12.4197 46.0011 13.5555C46.0134 14.1604 46.0257 14.753 45.927 15.3456C45.8899 15.5555 45.8899 15.5678 45.6801 15.5678C45.606 15.5678 45.5319 15.5678 45.4578 15.5678C42.3467 15.5678 39.2356 15.5678 36.1122 15.5678C35.7171 15.5678 35.7295 15.5678 35.7665 15.9629C35.8406 16.5555 36.0134 17.111 36.3344 17.6172C36.7912 18.3333 37.4455 18.8024 38.2233 19.0987C38.8529 19.3456 39.5196 19.4567 40.1986 19.4691C41.7048 19.5184 43.1616 19.358 44.606 18.8271ZM39.0751 12.9135C40.0998 12.9135 41.1245 12.9135 42.1492 12.9135C42.4085 12.9135 42.4085 12.9135 42.4085 12.6543C42.3961 11.9135 42.2233 11.2222 41.8529 10.5802C41.5813 10.111 41.2109 9.74067 40.7171 9.50611C39.7912 9.08635 38.8406 9.04932 37.927 9.48141C36.5566 10.1234 36.0134 11.358 35.7788 12.753C35.7541 12.8641 35.8159 12.9012 35.9146 12.9012C35.9887 12.9012 36.0628 12.9012 36.1369 12.9012H39.0751V12.9135Z" fill="#379CD1"/>
<path d="M77.568 27.9876C72.0371 27.9876 66.4939 27.9876 60.963 27.9876C59.6174 27.9876 58.2717 27.9876 56.9383 27.9876C56.8643 27.9876 56.7902 27.9876 56.7161 27.9876C56.6174 27.9876 56.5556 27.9505 56.568 27.8394C56.568 27.79 56.568 27.7407 56.568 27.6789C56.568 26.4197 56.568 25.1604 56.568 23.8888C56.568 23.6049 56.568 23.6049 56.8519 23.6049C57.9507 23.6049 59.0371 23.6049 60.1359 23.6049C60.4075 23.6049 60.4075 23.6049 60.4075 23.8765C60.4075 24.2715 60.4198 24.6666 60.4075 25.0616C60.4075 25.2221 60.4569 25.2839 60.6174 25.2715C60.7038 25.2592 60.7778 25.2715 60.8643 25.2715C73.284 25.2715 85.7161 25.2715 98.1358 25.2715C98.605 25.2715 98.5433 25.1974 98.5433 25.6789C98.5433 26.3579 98.5433 27.0493 98.5433 27.7283C98.5433 27.9752 98.5433 27.9876 98.284 27.9876C97.5062 27.9876 96.7408 27.9876 95.963 27.9876H77.568Z" fill="#3C2D66"/>
<path d="M28.1969 15.7161V21.5433C28.1969 21.6173 28.1969 21.6914 28.1969 21.7655C28.2093 21.926 28.1475 21.9877 27.987 21.9877C27.6784 21.9754 27.3698 21.9877 27.0611 21.9877C26.2586 21.9877 25.4438 21.9877 24.6414 21.9877C24.3944 21.9877 24.3944 21.9877 24.3944 21.7531C24.3944 21.6791 24.3944 21.605 24.3944 21.5309C24.3944 17.6173 24.3944 13.7161 24.3944 9.80252C24.3944 9.43215 24.4562 9.40746 24.0117 9.40746C23.4809 9.40746 22.9623 9.40746 22.4315 9.40746C22.1969 9.40746 22.1846 9.39512 22.1846 9.16055C22.1846 8.39512 22.1846 7.62969 22.1846 6.86425C22.1846 6.605 22.1969 6.605 22.4438 6.59265C22.987 6.59265 23.5179 6.59265 24.0611 6.59265C24.3944 6.59265 24.4068 6.59265 24.4068 6.25932C24.4068 4.66673 24.4068 3.07413 24.4068 1.48154C24.4068 1.41981 24.4068 1.35809 24.4068 1.29636C24.4068 1.01241 24.4068 1.00006 24.6907 1.00006C25.629 1.00006 26.5673 1.00006 27.5179 1.00006C27.6784 1.00006 27.8512 1.00006 28.0117 1.00006C28.1475 1.00006 28.234 1.0371 28.2216 1.19759C28.2216 1.27167 28.2216 1.34574 28.2216 1.41981C28.2216 3.01241 28.2216 4.605 28.2216 6.19759C28.2216 6.28401 28.2216 6.35808 28.2216 6.4445C28.2216 6.54327 28.2586 6.605 28.3698 6.59265C28.4438 6.59265 28.5179 6.59265 28.592 6.59265C29.5179 6.59265 30.4315 6.59265 31.3574 6.59265C31.6167 6.59265 31.6167 6.59265 31.6167 6.83956C31.6167 7.60499 31.6167 8.37043 31.6167 9.13586C31.6167 9.38277 31.6167 9.39512 31.3451 9.39512C30.4315 9.39512 29.5302 9.39512 28.6167 9.39512C28.5426 9.39512 28.4685 9.39512 28.3944 9.39512C28.2833 9.39512 28.2216 9.4445 28.2216 9.55561C28.2216 9.64203 28.2216 9.7161 28.2216 9.80252C28.1969 11.7778 28.1969 13.7408 28.1969 15.7161Z" fill="#379CD1"/>
<path d="M86.9626 22.4197C85.3947 22.4197 84.0614 22.1728 82.8145 21.5432C81.049 20.6419 79.9132 19.2222 79.333 17.3456C79.012 16.2962 78.9009 15.2222 78.9626 14.1234C79.0737 12.3086 79.6416 10.6666 80.8515 9.27156C81.6787 8.32094 82.691 7.64193 83.8515 7.19748C85.1725 6.69131 86.5552 6.51847 87.9626 6.60489C88.8268 6.65427 89.691 6.80242 90.5182 7.08637C90.6046 7.11106 90.691 7.1481 90.7774 7.17279C91.0861 7.3086 91.0984 7.2839 91.012 7.61724C90.8145 8.38267 90.6416 9.16045 90.4564 9.93822C90.4071 10.1481 90.3947 10.1481 90.1972 10.074C89.3083 9.70366 88.37 9.55551 87.4071 9.5802C85.1478 9.62958 83.4935 10.9629 83.012 13.1728C82.7527 14.3703 82.8145 15.5555 83.296 16.7037C83.8762 18.0864 84.9132 18.9259 86.3577 19.2469C87.6663 19.5308 88.9503 19.358 90.1972 18.9135C90.5182 18.8024 90.5305 18.7901 90.5922 19.1357C90.7404 19.9012 90.8639 20.6543 91.0243 21.4197C91.0614 21.5802 91.012 21.6419 90.8762 21.6913C90.1478 21.9876 89.3824 22.1728 88.6046 22.2839C87.9873 22.3827 87.3824 22.432 86.9626 22.4197Z" fill="#379CD1"/>
<path d="M52.58 11.0617C52.58 14.6049 52.58 18.1605 52.58 21.7037C52.58 22.1234 52.6171 22.0987 52.1973 22.0987H49.1356C49.0615 22.0987 48.9875 22.0987 48.9134 22.0987C48.7899 22.0987 48.7158 22.0494 48.7282 21.9136C48.7282 21.8395 48.7282 21.7654 48.7282 21.6913C48.7282 14.5926 48.7282 7.50617 48.7282 0.407407C48.7282 -0.037037 48.6788 0.0123457 49.1233 0C50.1479 0 51.1726 0 52.1973 0C52.2714 0 52.3455 0 52.4195 0C52.5307 0 52.5924 0.0493827 52.5924 0.160494C52.5924 0.259259 52.5924 0.345679 52.5924 0.444444C52.58 3.98765 52.58 7.51851 52.58 11.0617Z" fill="#379CD1"/>
<path d="M60.4074 11.0247C60.4074 14.5803 60.4074 18.1358 60.4074 21.7037C60.4074 22.1111 60.4444 22.0988 60.0247 22.0988C58.9877 22.0988 57.9506 22.0988 56.9259 22.0988C56.8519 22.0988 56.7778 22.0988 56.7037 22.0988C56.6049 22.0988 56.5556 22.0494 56.5556 21.9506C56.5556 21.8766 56.5556 21.8025 56.5556 21.7284C56.5556 14.6173 56.5556 7.49387 56.5556 0.38276C56.5556 -0.0123015 56.5185 0.0123898 56.9259 0.0123898C57.9753 0.0123898 59.0124 0.0123898 60.0617 0.0123898C60.1235 0.0123898 60.1852 0.0123898 60.2469 0.0123898C60.358 0.0123898 60.4198 0.0617725 60.4198 0.172883C60.4198 0.271649 60.4198 0.358069 60.4198 0.456834C60.4074 3.97535 60.4074 7.49387 60.4074 11.0247Z" fill="#379CD1"/>
<path d="M0.0244141 14.3211V7.00014C0.0244141 6.95076 0.0244141 6.90138 0.0244141 6.83965C0.0244141 6.54335 0.0244141 6.53101 0.333056 6.53101C1.41947 6.53101 2.50589 6.53101 3.59231 6.53101C3.86392 6.53101 3.86392 6.53101 3.86392 6.80261C3.86392 11.8026 3.86392 16.8149 3.86392 21.8149C3.86392 22.0742 3.86392 22.0742 3.617 22.0742C2.51824 22.0742 1.41947 22.0742 0.333056 22.0742C0.0491054 22.0742 0.0491054 22.0742 0.0491054 21.7903C0.0244141 19.3088 0.0244141 16.8149 0.0244141 14.3211Z" fill="#3C2D66"/>
<path d="M1.92592 4.98767C1.37037 4.98767 0.814814 4.98767 0.246913 4.98767C0 4.98767 0 4.97532 0 4.7531C0 3.6173 0 2.4815 0 1.3457C0 1.12347 0 1.12347 0.222222 1.12347C1.37037 1.12347 2.51852 1.12347 3.66666 1.12347C3.87654 1.12347 3.88889 1.12347 3.88889 1.3457C3.88889 2.4815 3.88889 3.6173 3.88889 4.7531C3.88889 4.97532 3.88889 4.97532 3.64197 4.97532C3.06173 4.98767 2.49383 4.98767 1.92592 4.98767Z" fill="#3C2D66"/>
</svg>
