<svg width="42" height="20" viewBox="0 0 42 20" fill="none" xmlns="http://www.w3.org/2000/svg">
<path d="M10 0C4.47682 0 0 4.47682 0 10C0 15.5232 4.47682 20 10 20C15.5232 20 20 15.5232 20 10C19.9975 4.47682 15.5206 0 10 0ZM12.4348 13.5166V14.2843H10.3623V14.2893H9.59463V5.69293H10.3623V13.5191H12.4348V13.5166ZM18.3684 10C18.3684 14.6238 14.6212 18.3709 9.99747 18.3709C5.3737 18.3709 1.62655 14.6238 1.62655 10C1.62655 5.37624 5.3737 1.62909 9.99747 1.62909C10.1191 1.62909 10.2407 1.63162 10.3623 1.63669V2.39929C10.2407 2.39422 10.1216 2.39169 10 2.39169C5.79681 2.39169 2.39169 5.79934 2.39169 10C2.39169 14.2032 5.79934 17.6083 10 17.6083C14.0866 17.6083 17.4234 14.3856 17.6007 10.342L17.6032 10.3192H12.4474V9.55156H18.3582C18.3658 9.70104 18.3684 9.84799 18.3684 10ZM8.05168 6.83304C8.05168 7.48163 7.5247 8.00861 6.87611 8.00861C6.22751 8.00861 5.70053 7.48163 5.70053 6.83304C5.70053 6.18444 6.22751 5.65746 6.87611 5.65746C7.52724 5.65746 8.05168 6.18191 8.05168 6.83304Z" fill="#C3004D"/>
<path d="M9.59473 5.69287V14.2893H10.3624V14.2842H12.4349V13.5165H10.3624V5.69287H9.59473Z" fill="white"/>
<path d="M12.4469 10.3192H17.6027L17.6001 10.342C17.4203 14.3856 14.0861 17.6083 9.99942 17.6083C5.79623 17.6083 2.39111 14.2007 2.39111 10C2.39111 5.79681 5.79877 2.39169 9.99942 2.39169C10.121 2.39169 10.2426 2.39423 10.3617 2.39929V1.63669C10.2401 1.63162 10.1185 1.62909 9.99689 1.62909C5.37313 1.62909 1.62598 5.37624 1.62598 10C1.62598 14.6238 5.37313 18.3709 9.99689 18.3709C14.6207 18.3709 18.3678 14.6238 18.3678 10C18.3678 9.85052 18.3627 9.70104 18.3551 9.55156H12.4469V10.3192Z" fill="white"/>
<path d="M5.7002 6.83311C5.7002 7.4817 6.22718 8.00868 6.87577 8.00868C7.52437 8.00868 8.05135 7.4817 8.05135 6.83311C8.05135 6.18451 7.52437 5.65753 6.87577 5.65753C6.22718 5.65753 5.7002 6.18198 5.7002 6.83311Z" fill="white"/>
<path d="M27.5877 12.7489V12.5411V5.02148H24.9629V14.9075H32.1076V12.7489H27.7954H27.5877Z" fill="#666666"/>
<path d="M37.6379 9.32355V11.0692H39.3886H39.642C39.642 11.0692 39.6623 13.2683 37.5949 13.2683C37.0704 13.2683 36.6017 13.0783 36.2419 12.7185C35.682 12.1586 35.3856 11.2161 35.3856 9.98988C35.3856 7.96302 36.1913 6.75198 37.5391 6.75198C38.3828 6.75198 39.0137 7.26882 39.1783 8.05423H41.9602C41.8158 6.91412 41.5042 6.32127 40.7416 5.71575C39.9207 5.08235 38.8667 4.75806 37.6075 4.75806C36.1127 4.75806 34.8637 5.21663 33.9972 6.08565C33.0902 6.99267 32.6113 8.32786 32.6113 9.94934C32.6113 11.6798 33.118 13.1416 34.0403 14.0613C34.7623 14.7834 35.7276 15.166 36.8297 15.166C39.2493 15.166 39.8067 13.7142 39.8067 13.7142V14.3806V14.905H41.9906V9.32355H37.6379Z" fill="#666666"/>
</svg>
