<svg width="76" height="19" viewBox="0 0 76 19" fill="none" xmlns="http://www.w3.org/2000/svg">
<path d="M6.91852 0.535915C9.22605 0.18713 11.6531 0.394712 13.7989 1.34572C15.3014 2.01433 16.6519 3.13309 17.376 4.63081C18.2438 6.41336 18.146 8.63399 17.1021 10.3236C16.0086 12.1206 14.0487 13.2092 12.0513 13.7064C9.96465 14.2085 7.74281 14.1976 5.667 13.6425C3.80481 13.1368 2.00296 12.0989 0.9385 10.4467C-0.0825095 8.88622 -0.275608 6.83697 0.384548 5.09908C0.892639 3.75221 1.91606 2.64552 3.13258 1.89726C4.28031 1.18159 5.58976 0.761599 6.91852 0.535915ZM7.51592 2.71914C5.99406 2.93999 4.42393 3.5555 3.47654 4.82271C2.53639 6.07664 2.45191 7.89418 3.2243 9.24949C3.77584 10.2307 4.74858 10.9017 5.78286 11.2988C7.42903 11.907 9.24898 11.9867 10.9651 11.6512C12.2468 11.3856 13.5297 10.822 14.3758 9.78896C15.3062 8.66899 15.5066 7.03368 14.9768 5.69286C14.5592 4.6284 13.6504 3.82463 12.6306 3.34912C11.0412 2.62379 9.23209 2.48259 7.51592 2.71914ZM21.9802 2.18208C24.0572 0.725393 26.6906 0.241439 29.1876 0.417642C31.3576 0.575741 33.5734 1.254 35.2135 2.73483C36.4662 3.8548 37.2616 5.50338 37.2338 7.19661C37.2845 8.95502 36.4506 10.6772 35.123 11.8129C33.5867 13.1597 31.5579 13.8187 29.5509 14.0202C26.9465 14.2592 24.1598 13.8211 21.9923 12.2775C21.9597 14.3087 21.9887 16.3422 21.979 18.3746C21.0739 18.3758 20.1699 18.3794 19.266 18.3722C19.2672 12.5853 19.266 6.79955 19.266 1.01263C20.1711 1.01021 21.0751 1.01021 21.9802 1.01263C21.9778 1.40245 21.9766 1.79226 21.9802 2.18208ZM26.8306 2.72034C25.3655 2.93275 23.8593 3.49274 22.8878 4.65978C21.8825 5.84854 21.7051 7.63108 22.3737 9.0226C22.848 10.0134 23.7483 10.74 24.7391 11.1757C26.4324 11.8974 28.3464 12.0072 30.1447 11.6789C31.4191 11.4291 32.6972 10.892 33.5673 9.89758C34.4097 8.94174 34.7223 7.57315 34.4447 6.33612C34.1997 5.09666 33.2886 4.06962 32.1831 3.50119C30.5514 2.64552 28.6337 2.49225 26.8306 2.72034ZM41.2635 2.1857C43.0002 0.935388 45.1714 0.440572 47.2822 0.376608C49.5137 0.372988 51.826 0.824356 53.6931 2.10484C55.0351 3.00396 56.0778 4.4003 56.3916 6.00061C56.7621 7.70832 56.3337 9.57293 55.2354 10.9355C53.967 12.5322 52.0227 13.4542 50.0531 13.8356C47.0782 14.4101 43.7955 14.0263 41.2551 12.2872C41.2611 14.3159 41.2575 16.3435 41.2575 18.3722C40.3536 18.3794 39.4496 18.3734 38.5457 18.3758C38.5481 12.5877 38.5481 6.79955 38.5457 1.01142C39.4496 1.01142 40.3536 1.01021 41.2575 1.01263C41.2563 1.40365 41.2563 1.79468 41.2635 2.1857ZM46.0415 2.73241C44.5004 2.9593 42.9 3.59774 41.9744 4.91081C41.0113 6.27095 41.0197 8.24296 41.9937 9.59466C42.6683 10.5276 43.7062 11.137 44.7948 11.4653C46.581 11.9891 48.5228 11.9891 50.3066 11.4569C51.3493 11.1322 52.3534 10.5614 53.0208 9.67793C53.9549 8.45537 54.0805 6.68731 53.3612 5.332C52.8917 4.42685 52.059 3.76066 51.1454 3.34067C49.5571 2.62259 47.7516 2.49828 46.0415 2.73241ZM65.5047 0.441779C67.6493 0.235405 69.8783 0.529881 71.831 1.46882C73.2684 2.16156 74.5465 3.28636 75.2091 4.75995C75.9984 6.48335 75.9006 8.59416 74.9315 10.2283C74.2472 11.4001 73.1707 12.3077 71.9674 12.9147C70.2899 13.762 68.3891 14.0987 66.5208 14.0721C64.6731 14.0335 62.8013 13.6389 61.1829 12.7216C59.9869 12.0458 58.9441 11.0513 58.3516 9.79982C57.4911 8.01607 57.5949 5.79423 58.6472 4.11186C60.0967 1.78864 62.8725 0.673498 65.5047 0.441779ZM65.2464 2.72396C63.6702 2.9593 62.0337 3.63153 61.1237 5.00494C60.2656 6.30715 60.2596 8.11866 61.1068 9.42811C61.773 10.472 62.9051 11.1225 64.0673 11.4725C65.8293 11.9746 67.7374 11.9782 69.4958 11.4581C70.5952 11.1177 71.6669 10.5107 72.3307 9.54517C73.1043 8.45175 73.2346 6.96972 72.7676 5.72786C72.3247 4.57288 71.3121 3.72325 70.1921 3.25619C68.6389 2.60931 66.901 2.49104 65.2464 2.72396Z" fill="#1EA366"/>
</svg>
