<svg width="85" height="20" viewBox="0 0 85 20" fill="none" xmlns="http://www.w3.org/2000/svg">
<path d="M7.68725 0.177031C10.2512 -0.210507 12.9478 0.0201384 15.3321 1.07682C17.0016 1.81971 18.5021 3.06278 19.3067 4.72692C20.2708 6.70752 20.1622 9.17489 19.0023 11.0522C17.7874 13.0489 15.6097 14.2585 13.3904 14.811C11.0718 15.3688 8.60313 15.3567 6.29667 14.7399C4.22756 14.178 2.22551 13.0248 1.04278 11.189C-0.0916772 9.45515 -0.306231 7.1782 0.427275 5.24721C0.991821 3.7507 2.12896 2.52103 3.48065 1.68964C4.7559 0.894446 6.21085 0.427791 7.68725 0.177031ZM8.35103 2.60283C6.66007 2.84823 4.91548 3.53212 3.86282 4.94013C2.81821 6.33339 2.72434 8.35288 3.58256 9.85878C4.19538 10.949 5.2762 11.6946 6.4254 12.1357C8.25448 12.8116 10.2766 12.9001 12.1835 12.5273C13.6076 12.2323 15.033 11.6061 15.9731 10.4582C17.0069 9.21378 17.2295 7.39677 16.6409 5.90697C16.1769 4.72424 15.1671 3.83115 14.034 3.30282C12.268 2.4969 10.2579 2.34 8.35103 2.60283ZM24.4225 2.0061C26.7303 0.387562 29.6562 -0.150164 32.4307 0.0456167C34.8418 0.221283 37.3038 0.974904 39.1261 2.62027C40.518 3.86468 41.4017 5.69643 41.3709 7.5778C41.4272 9.53159 40.5006 11.4451 39.0256 12.707C37.3185 14.2035 35.0644 14.9357 32.8343 15.1596C29.9405 15.4251 26.8442 14.9383 24.4359 13.2233C24.3997 15.4801 24.4319 17.7396 24.4211 19.9978C23.4154 19.9991 22.411 20.0032 21.4066 19.9951C21.408 13.5652 21.4066 7.13663 21.4066 0.706711C22.4124 0.704029 23.4167 0.704029 24.4225 0.706711C24.4198 1.13984 24.4184 1.57297 24.4225 2.0061ZM29.8118 2.60417C28.1839 2.84018 26.5103 3.46239 25.4309 4.7591C24.3138 6.07995 24.1167 8.06055 24.8596 9.60668C25.3866 10.7076 26.387 11.5149 27.4879 11.999C29.3693 12.8009 31.496 12.9229 33.4941 12.5581C34.9101 12.2806 36.3302 11.6838 37.2971 10.5789C38.233 9.51684 38.5804 7.99619 38.2719 6.6217C37.9997 5.24453 36.9873 4.10337 35.759 3.47178C33.946 2.52103 31.8152 2.35073 29.8118 2.60417ZM45.8484 2.01013C47.778 0.62089 50.1904 0.071095 52.5358 2.39832e-05C55.0152 -0.0039989 57.5845 0.497521 59.659 1.92028C61.1501 2.9193 62.3087 4.47079 62.6573 6.24891C63.069 8.14637 62.593 10.2182 61.3727 11.7321C59.9633 13.5062 57.8031 14.5307 55.6146 14.9544C52.3091 15.5927 48.6617 15.1663 45.839 13.234C45.8457 15.4881 45.8417 17.741 45.8417 19.9951C44.8373 20.0032 43.8329 19.9965 42.8285 19.9991C42.8312 13.5679 42.8312 7.13663 42.8285 0.70537C43.8329 0.70537 44.8373 0.704029 45.8417 0.706711C45.8403 1.14118 45.8403 1.57566 45.8484 2.01013ZM51.1572 2.61758C49.4448 2.86968 47.6667 3.57905 46.6382 5.03802C45.5681 6.54929 45.5775 8.74042 46.6597 10.2423C47.4093 11.2789 48.5625 11.956 49.772 12.3208C51.7567 12.9028 53.9143 12.9028 55.8962 12.3114C57.0548 11.9507 58.1705 11.3164 58.912 10.3348C59.9499 8.97643 60.0894 7.01192 59.2902 5.50602C58.7686 4.5003 57.8433 3.76008 56.8282 3.29343C55.0635 2.49556 53.0574 2.35744 51.1572 2.61758ZM72.783 0.072436C75.1658 -0.156869 77.6426 0.170326 79.8123 1.2136C81.4094 1.98331 82.8294 3.23309 83.5656 4.8704C84.4426 6.7853 84.334 9.13064 83.2572 10.9463C82.4969 12.2484 81.3008 13.2568 79.9638 13.9313C78.0999 14.8726 75.9879 15.2468 73.912 15.2173C71.859 15.1744 69.7792 14.7359 67.981 13.7167C66.6521 12.9658 65.4935 11.8608 64.8351 10.4703C63.879 8.48832 63.9943 6.01961 65.1636 4.1503C66.7741 1.56895 69.8583 0.329901 72.783 0.072436ZM72.496 2.6082C70.7447 2.86968 68.9263 3.6166 67.9153 5.14262C66.9618 6.58952 66.9551 8.6023 67.8965 10.0572C68.6367 11.2172 69.8945 11.94 71.1859 12.3288C73.1437 12.8867 75.2637 12.8907 77.2175 12.3127C78.4391 11.9346 79.6299 11.2601 80.3674 10.1873C81.227 8.97241 81.3718 7.3257 80.8529 5.94585C80.3607 4.66255 79.2357 3.71851 77.9912 3.19956C76.2654 2.48081 74.3344 2.34939 72.496 2.6082Z" fill="#1EA366"/>
</svg>
