<svg width="77" height="14" viewBox="0 0 77 14" fill="none" xmlns="http://www.w3.org/2000/svg">
<path d="M25.9024 0.2811H21.8005V5.622H17.5306V0.2811H13.4286V13.7189H17.5306V8.433H21.8005V13.7189H25.9024V0.2811ZM40.1713 11.0194V0.2811H36.0694V13.7189H43.4865L44.1037 11.0179L40.1713 11.0194ZM33.0369 0.2811H28.935V13.7189H33.0369V0.2811ZM49.6661 0.2811H45.5657V13.7189H49.6661V0.2811ZM69.89 3.71082C69.89 2.97905 70.6218 2.64142 71.7996 2.64142C73.0921 2.64142 74.4976 2.92405 75.4524 3.31973L75.1163 0.394151C74.0469 0.169577 73.0921 0.00152772 71.352 0.00152772C68.0369 0.00152772 65.7896 1.30925 65.7896 4.04998C65.7896 8.77215 72.1969 7.81733 72.1969 10.0096C72.1969 10.8514 71.5766 11.3005 70.0596 11.3005C68.7137 11.3005 66.6314 10.8514 65.397 10.2326L65.8477 13.3263C67.0836 13.777 68.7671 14 70.1176 14C73.5443 14 76.3522 12.8756 76.3522 9.50087C76.3522 5.0048 69.89 5.8481 69.89 3.71082ZM58.3191 10.5153C62.1368 10.5153 64.5537 8.54605 64.5537 5.11632C64.5537 1.3505 61.9703 0 57.7553 0C56.1268 0 54.1591 0.113051 52.7567 0.2811V13.7189H56.8586V10.5153H58.3191ZM60.5083 5.17285C60.5083 6.91445 59.6665 8.0969 57.5292 8.0969H56.857V2.54365C57.0954 2.5299 57.3184 2.5299 57.5292 2.5299C59.5519 2.5299 60.5083 3.48472 60.5083 5.17285ZM5.56395 10.5153C9.38324 10.5153 11.7986 8.54605 11.7986 5.11632C11.7986 1.3505 9.21519 0 5.00175 0C3.37167 0 1.4055 0.113051 0 0.2811V13.7189H4.10192V10.5153H5.56395ZM7.75622 5.17285C7.75622 6.91445 6.91139 8.0969 4.77717 8.0969H4.10345V2.54365C4.34177 2.5299 4.56787 2.5299 4.77717 2.5299C6.79987 2.5299 7.75622 3.48472 7.75622 5.17285Z" fill="#0B5ED7"/>
</svg>
