<svg width="92" height="14" viewBox="0 0 92 14" fill="none" xmlns="http://www.w3.org/2000/svg">
<path d="M3.47688 3.78464C3.41357 3.52108 3.42939 3.24172 3.46105 3.0994C3.55074 2.68298 3.83565 2.21913 4.6587 2.21913C5.42372 2.21913 5.87746 2.69352 5.87746 3.40512V4.21687H9.14329V3.2997C9.14329 0.453313 6.57916 0 4.72729 0C2.40058 0 0.506495 0.769578 0.15828 2.90437C0.0580359 3.48946 0.0422079 4.00602 0.179384 4.66491C0.743915 7.34262 5.39734 8.1122 6.07267 9.80422C6.19929 10.1205 6.16236 10.5211 6.09905 10.7688C5.99353 11.2116 5.69807 11.6544 4.82226 11.6544C4.00448 11.6544 3.51381 11.18 3.51381 10.4631L3.50853 9.20331H0V10.1995C0 13.125 2.30033 14 4.75894 14C7.12259 14 9.06415 13.1935 9.38071 11.006C9.53899 9.87801 9.41765 9.14533 9.37016 8.86596C8.81618 6.13027 3.85147 5.31852 3.47688 3.78464ZM46.0383 3.82154C45.9803 3.56325 45.9961 3.28916 46.0278 3.14684C46.1227 2.72515 46.4024 2.27184 47.2149 2.27184C47.9693 2.27184 48.4125 2.74096 48.4125 3.44729V4.24849H51.6414V3.33133C51.6414 0.516566 49.1142 0.0737952 47.2834 0.0737952C44.9778 0.0737952 43.0943 0.832831 42.7514 2.95181C42.6617 3.52636 42.6406 4.04292 42.783 4.69126C43.3423 7.33735 47.9482 8.10166 48.6183 9.77259C48.7396 10.0889 48.7027 10.4947 48.6446 10.7319C48.5444 11.1642 48.2542 11.6017 47.3837 11.6017C46.5712 11.6017 46.0805 11.1325 46.0805 10.4315V9.17696H42.6036V10.1732C42.6036 13.0617 44.8723 13.9367 47.3098 13.9367C49.6471 13.9367 51.5781 13.1408 51.8894 10.9744C52.0371 9.85693 51.9263 9.12952 51.8683 8.85542C51.3196 6.14608 46.4129 5.33434 46.0383 3.82154ZM75.7527 10.9428L72.6715 0.416416H67.8176V13.3517H71.0307L70.846 2.48795L74.1541 13.3517H78.8128V0.416416H75.5786L75.7527 10.9428ZM14.013 0.416416L11.5914 13.4887H15.1263L16.9518 1.3863L18.735 13.4887H22.2489L19.8325 0.416416H14.013ZM33.7769 0.416416L32.1255 10.637L30.4794 0.416416H25.1401L24.8552 13.4887H28.1263L28.216 1.3863L30.4636 13.4887H33.7822L36.035 1.3863L36.1247 13.4887H39.4011L39.1057 0.416416H33.7769ZM64.1877 0.416416H60.8797V10.0889C60.8849 10.2575 60.8797 10.442 60.848 10.5843C60.7794 10.9111 60.5051 11.5331 59.5923 11.5331C58.6901 11.5331 58.4052 10.9111 58.3419 10.5843C58.3103 10.442 58.305 10.2575 58.3103 10.0889V0.416416H55.0022V9.7884C54.9969 10.0309 55.018 10.5264 55.0339 10.6529C55.2607 13.0934 57.1865 13.8893 59.5923 13.8893C62.0035 13.8893 63.9239 13.0986 64.1613 10.6529C64.1772 10.5211 64.2036 10.0309 64.1877 9.7884V0.416416ZM86.9114 6.15136V8.05949H88.2515V9.95181C88.2568 10.1205 88.2462 10.305 88.2199 10.4473C88.1671 10.8005 87.8294 11.4014 86.8798 11.4014C85.9354 11.4014 85.603 10.8005 85.5449 10.4473C85.5238 10.305 85.5133 10.1205 85.5133 9.95181V3.9744C85.5133 3.76355 85.5291 3.53163 85.5713 3.35768C85.6399 3.04142 85.9195 2.40889 86.8745 2.40889C87.8717 2.40889 88.1249 3.07304 88.1829 3.35768C88.2199 3.54744 88.2199 3.8637 88.2199 3.8637V4.58584H91.5174V4.15889C91.5174 4.15889 91.5332 3.71084 91.491 3.29443C91.243 0.838102 89.217 0.063253 86.9009 0.063253C84.5794 0.063253 82.5957 0.843373 82.3055 3.29443C82.2791 3.51581 82.2369 3.92169 82.2369 4.15889V9.65135C82.2369 9.89382 82.2474 10.0783 82.2896 10.5158C82.506 12.9036 84.5742 13.747 86.8903 13.747C89.217 13.747 91.2694 12.9036 91.491 10.5158C91.5279 10.0783 91.5332 9.89382 91.5385 9.65135V6.15136H86.9114Z" fill="#1E4BC6"/>
</svg>
