<svg width="95" height="15" viewBox="0 0 95 15" fill="none" xmlns="http://www.w3.org/2000/svg">
<path fill-rule="evenodd" clip-rule="evenodd" d="M14.3661 6.28075C13.2454 6.0305 9.02592 5.35201 7.92269 5.20723C6.4719 5.03313 5.63034 4.77211 5.63034 3.95908C5.63034 2.85637 7.7757 3.0472 9.51955 3.11738C11.6671 3.20443 15.7012 4.53963 16.8618 5.03313L18.2261 2.04386C15.9909 0.940624 11.6958 0.418457 8.96819 0.418457C6.99459 0.447647 0.400999 0.9126 0.319398 4.42339C0.261538 6.91916 2.44647 7.82507 5.22376 8.51537C7.60381 9.00887 10.2449 9.2407 12.0444 9.61861C14.3493 10.1019 14.3369 11.737 12.5087 11.9111C9.35362 12.1414 4.0048 10.5759 1.56754 9.35694L0 12.5495C3.39559 14.2041 8.64763 14.6035 10.4482 14.5813C12.7698 14.5522 18.9223 14.3197 18.9223 10.6338C18.9223 8.20778 16.8325 6.83211 14.3661 6.28075ZM32.7754 6.10717H24.1857V1.05738H19.7743V14.0592H24.1857V8.71853H32.7754V14.0592H37.1873V1.05738H32.7754V6.10717ZM50.7811 1.05738H45.3534L37.7209 14.0592H41.1453L42.9156 11.0986H51.5276L53.3059 14.0592H58.6169L50.7811 1.05738ZM85.6549 0.533658C84.2625 0.533658 80.3441 0.678437 77.7608 1.05634V14.0581H81.909V9.3559C82.4318 9.53 85.4231 9.82021 86.468 9.82021C87.5128 9.82021 95 9.50133 95 5.06128C95 0.301179 87.048 0.533658 85.6549 0.533658ZM76.4766 4.85747C76.4462 0.0985373 68.3797 0.533658 66.9867 0.533658C65.5937 0.533658 61.6758 0.678437 59.0931 1.05634V14.0581H63.3029V3.0293C64.812 2.91319 66.9574 2.82614 67.5958 2.82614C68.2348 2.82614 71.5142 2.71042 71.5429 5.06128C71.5705 7.2959 68.4959 7.32457 67.1607 7.32457C66.3191 7.32457 65.6229 7.15047 64.8974 6.97637L64.1137 8.31156L70.6143 14.0581H76.8511L71.1916 9.08178C73.5932 8.5997 76.4938 7.47635 76.4766 4.85747ZM44.4248 8.4867L47.1534 3.81417L49.9595 8.4867H44.4248ZM85.8874 7.5564C84.5529 7.5564 83.0123 7.44081 81.909 7.03423V3.0293C83.3025 2.91319 85.5102 2.82614 86.1486 2.82614C86.7868 2.82614 90.0967 2.97157 90.1242 5.11914C90.1535 7.35376 87.2226 7.5564 85.8874 7.5564Z" fill="#ED1C24"/>
</svg>
