<svg width="94" height="15" viewBox="0 0 94 15" fill="none" xmlns="http://www.w3.org/2000/svg">
<path fill-rule="evenodd" clip-rule="evenodd" d="M14.2148 6.60165C13.106 6.35429 8.93091 5.68364 7.83929 5.54053C6.40378 5.36845 5.57107 5.11045 5.57107 4.30682C5.57107 3.21685 7.69385 3.40548 9.41934 3.47485C11.5443 3.5609 15.536 4.88065 16.6843 5.36845L18.0342 2.41374C15.8226 1.32326 11.5727 0.807129 8.87379 0.807129C6.92096 0.835981 0.396778 1.29556 0.316036 4.76576C0.258785 7.23267 2.42072 8.12812 5.16877 8.81043C7.52377 9.29823 10.137 9.52738 11.9176 9.90091C14.1983 10.3786 14.1859 11.9948 12.377 12.1669C9.25516 12.3945 3.96265 10.8471 1.55104 9.64227L0 12.7979C3.35984 14.4334 8.5566 14.8282 10.3382 14.8063C12.6354 14.7774 18.7232 14.5476 18.7232 10.9043C18.7232 8.5064 16.6553 7.14663 14.2148 6.60165ZM32.4304 6.43007H23.9311V1.43867H19.5661V14.2901H23.9311V9.01124H32.4304V14.2901H36.7959V1.43867H32.4304V6.43007ZM50.2466 1.43867H44.876L37.3239 14.2901H40.7122L42.4639 11.3638H50.9852L52.7448 14.2901H57.9998L50.2466 1.43867ZM84.7533 0.920998C83.3756 0.920998 79.4984 1.0641 76.9422 1.43764V14.2891H81.0467V9.64125C81.5641 9.81333 84.5239 10.1002 85.5578 10.1002C86.5916 10.1002 94 9.78499 94 5.39627C94 0.691207 86.1317 0.920998 84.7533 0.920998ZM75.6716 5.19482C75.6415 0.490908 67.6599 0.920998 66.2816 0.920998C64.9032 0.920998 61.0266 1.0641 58.4711 1.43764V14.2891H62.6365V3.38779C64.1298 3.27302 66.2526 3.18697 66.8843 3.18697C67.5165 3.18697 70.7614 3.07259 70.7898 5.39627C70.8172 7.60506 67.7749 7.6334 66.4537 7.6334C65.621 7.6334 64.9321 7.46131 64.2143 7.28922L63.4388 8.60898L69.871 14.2891H76.0422L70.4422 9.37029C72.8185 8.89379 75.6886 7.78343 75.6716 5.19482ZM43.9572 8.78209L46.6571 4.16358L49.4336 8.78209H43.9572ZM84.9833 7.86255C83.6628 7.86255 82.1385 7.74829 81.0467 7.34641V3.38779C82.4257 3.27302 84.61 3.18697 85.2417 3.18697C85.8733 3.18697 89.1483 3.33072 89.1755 5.45346C89.2045 7.66225 86.3045 7.86255 84.9833 7.86255Z" fill="#ED1C24"/>
</svg>
