<svg width="103" height="18" viewBox="0 0 103 18" fill="none" xmlns="http://www.w3.org/2000/svg">
<path d="M93.1786 1.01721V3.00676H94.5301C94.9323 3.00676 95.0438 3.41191 94.8687 3.6275L91.0314 8.11159L90.9243 8.09856L87.1883 3.6275C86.9148 3.29615 87.1347 3.00676 87.4285 3.00676H88.7597V1.01721H77.7383V3.00676H79.6989C80.554 3.00676 81.1068 3.54358 81.4294 3.89953C81.6884 4.17589 87.2997 10.5396 87.4285 10.7204C87.5674 10.8941 87.5674 10.923 87.5674 10.9997V14.154L87.5341 14.5925C87.4502 14.7545 87.3142 14.9079 87.0986 14.9658L86.5516 15.0034H84.5867V17.0045H95.5458V14.999H93.4738L92.9298 14.9672C92.7113 14.9093 92.5608 14.7574 92.5029 14.5939L92.4595 14.1555V11.0011L92.5376 10.7016C92.6867 10.528 98.3587 4.05435 98.6177 3.76786C99.1661 3.14133 99.4627 3.00676 100.193 3.00676H102.209V1.01721H93.1786Z" fill="#2D2D2D"/>
<path d="M66.4093 3.00676H68.4798C69.416 3.00676 69.5839 3.38152 69.5925 4.24969L69.7069 10.923L58.7216 1.01721H50.8633V3.00966H52.6097C53.8715 3.00966 53.9612 3.71866 53.9612 4.32348V13.6794C53.9612 14.2423 53.9988 15.0034 53.1885 15.0034H51.0239V17.0045H60.2569V15.0048H58.004C57.1083 15.0048 57.0605 14.604 57.0446 13.7185V5.71255L69.7054 17.006H72.9263L72.757 4.25113C72.7758 3.32509 72.8294 3.00821 73.7858 3.00821H75.8057V1.01721H66.4093V3.00676Z" fill="#2D2D2D"/>
<path d="M17.7815 7.95386C17.2606 7.71511 16.4547 7.41994 15.7949 7.26656C14.5013 6.941 11.59 6.55177 10.2068 6.41142C8.75112 6.25225 6.21174 6.04534 5.20756 5.7328C4.89791 5.64019 4.26559 5.33489 4.26559 4.61431C4.26559 4.10209 4.56222 3.65788 5.12363 3.29904C6.0135 2.74051 7.8381 2.39759 9.71624 2.39759C11.9561 2.3918 13.8429 2.8881 15.0395 3.42926C15.4519 3.62749 15.9294 3.87926 16.3129 4.19035C16.7412 4.53907 17.3358 5.26543 17.5572 6.27685H19.5815V0.800161H17.3301V1.43537C17.3301 1.64518 17.1188 1.90418 16.7064 1.69293C15.7037 1.159 12.8576 0.0188103 9.35884 0C7.37942 0 5.12363 0.387781 3.22524 1.23569C1.45707 2.02283 0 3.29759 0 5.41447C0 7.31141 1.20965 8.42267 1.17347 8.3865C1.69582 8.86254 2.52203 9.67428 4.6881 10.1416C5.65032 10.3543 7.71366 10.6698 9.7799 10.8998C11.8172 11.1111 13.8371 11.3209 14.659 11.522C15.3101 11.6884 16.3953 11.917 16.3953 13.1368C16.3953 14.3667 15.2465 14.7357 15.041 14.8138C14.837 14.8977 13.4638 15.5272 10.9736 15.5272C9.13891 15.5272 6.9381 14.9773 6.1336 14.7024C5.21479 14.3667 4.24534 13.9225 3.33955 12.8113C3.11093 12.5407 2.76945 11.7825 2.76945 11.0387H0.50209V17.333H3.00386V16.4807C3.00386 16.3982 3.13408 15.9887 3.54357 16.1855C4.06302 16.4315 5.59389 17.0277 7.20579 17.3619C8.51383 17.6368 9.36174 17.8293 10.9895 17.8293C13.6534 17.8293 15.0859 17.3995 16.0669 17.1188C17.0175 16.8439 18.1693 16.365 19.0895 15.6227C19.6003 15.2262 20.7 14.1902 20.7 12.3135C20.7 10.5077 19.7436 9.38923 19.3977 9.05354C18.9347 8.59051 18.3748 8.23023 17.7815 7.95386Z" fill="#2D2D2D"/>
<path d="M45.866 3.16592C43.4756 0.991157 40.3444 0 36.4102 0C32.8811 0 29.1161 1.22122 26.9819 3.15579C25.2904 4.70402 24.4121 6.84405 24.4121 8.98842C24.4121 11.1559 25.2615 13.2699 26.9819 14.824C29.2883 16.8873 32.719 18 36.4102 18C40.1317 18 43.642 16.9047 45.866 14.824C47.5256 13.2931 48.3967 11.0691 48.3967 8.98842C48.3967 6.83248 47.5748 4.72138 45.866 3.16592ZM41.4745 13.6809C40.2055 14.9383 38.3925 15.6256 36.4102 15.6256C34.4698 15.6256 32.6076 14.9339 31.343 13.6809C30.1449 12.4741 29.5025 10.787 29.5025 8.98842C29.5025 7.17974 30.1377 5.48537 31.343 4.28151C32.6076 3.04003 34.4698 2.3426 36.4102 2.3426C38.352 2.3426 40.2229 3.05161 41.4745 4.28151C42.6957 5.48392 43.3309 7.16383 43.3309 8.98842C43.3324 10.8752 42.742 12.4148 41.4745 13.6809Z" fill="#2D2D2D"/>
</svg>
