<svg width="80" height="14" viewBox="0 0 80 14" fill="none" xmlns="http://www.w3.org/2000/svg">
<path d="M72.6322 0.791138V2.33857H73.6833C73.9962 2.33857 74.0829 2.65368 73.9467 2.82136L70.9621 6.30898L70.8788 6.29885L67.973 2.82136C67.7603 2.56365 67.9314 2.33857 68.1599 2.33857H69.1952V0.791138H60.623V2.33857H62.148C62.8131 2.33857 63.243 2.75609 63.4939 3.03294C63.6954 3.24789 68.0597 8.19741 68.1599 8.33808C68.2679 8.47313 68.2679 8.49564 68.2679 8.55529V11.0087L68.242 11.3497C68.1767 11.4757 68.071 11.595 67.9033 11.64L67.4779 11.6693H65.9496V13.2257H74.4734V11.6659H72.8618L72.4386 11.6411C72.2687 11.5961 72.1517 11.478 72.1066 11.3508L72.0729 11.0098V8.55641L72.1337 8.32345C72.2496 8.1884 76.6611 3.15336 76.8626 2.93053C77.2891 2.44323 77.5198 2.33857 78.0882 2.33857H79.6558V0.791138H72.6322Z" fill="#2D2D2D"/>
<path d="M51.812 2.33857H53.4225C54.1506 2.33857 54.2812 2.63004 54.2879 3.30529L54.3768 8.49564L45.8328 0.791138H39.7207V2.34082H41.0791C42.0604 2.34082 42.1302 2.89226 42.1302 3.36268V10.6395C42.1302 11.0773 42.1594 11.6693 41.5292 11.6693H39.8456V13.2257H47.0268V11.6704H45.2746C44.5779 11.6704 44.5408 11.3587 44.5284 10.6699V4.44307L54.3757 13.2268H56.8808L56.7492 3.30641C56.7638 2.58615 56.8054 2.33969 57.5493 2.33969H59.1204V0.791138H51.812V2.33857Z" fill="#2D2D2D"/>
<path d="M13.9902 6.18633C13.5851 6.00064 12.9582 5.77106 12.445 5.65177C11.4389 5.39855 9.17463 5.09582 8.09874 4.98666C6.96659 4.86286 4.99151 4.70193 4.21048 4.45884C3.96964 4.38682 3.47784 4.14936 3.47784 3.58891C3.47784 3.19051 3.70855 2.84502 4.1452 2.56592C4.83733 2.13151 6.25646 1.86479 7.71723 1.86479C9.45935 1.86029 10.9269 2.2463 11.8576 2.6672C12.1783 2.82138 12.5497 3.0172 12.8479 3.25916C13.1811 3.53039 13.6436 4.09534 13.8158 4.88199H15.3902V0.622347H13.6391V1.1164C13.6391 1.27958 13.4748 1.48103 13.154 1.31672C12.3741 0.901447 10.1605 0.0146302 7.43926 0C5.89971 0 4.1452 0.301608 2.66868 0.961093C1.29344 1.57331 0.160156 2.56479 0.160156 4.21125C0.160156 5.68666 1.10099 6.55096 1.07286 6.52283C1.47913 6.89309 2.12173 7.52444 3.80646 7.88794C4.55485 8.05338 6.15967 8.29871 7.76675 8.47765C9.35131 8.64196 10.9224 8.80514 11.5616 8.96158C12.068 9.091 12.9121 9.26881 12.9121 10.2175C12.9121 11.1741 12.0185 11.4611 11.8587 11.5219C11.7 11.5871 10.632 12.0767 8.6952 12.0767C7.26819 12.0767 5.55646 11.649 4.93073 11.4352C4.2161 11.1741 3.46209 10.8286 2.75758 9.96431C2.57977 9.75386 2.31418 9.16415 2.31418 8.58569H0.550671V13.4812H2.49649V12.8183C2.49649 12.7542 2.59778 12.4357 2.91627 12.5887C3.32028 12.7801 4.51096 13.2437 5.76466 13.5037C6.78202 13.7175 7.44151 13.8672 8.70758 13.8672C10.7794 13.8672 11.8936 13.533 12.6566 13.3146C13.396 13.1008 14.2918 12.7283 15.0076 12.151C15.4048 11.8426 16.2602 11.0368 16.2602 9.57717C16.2602 8.17267 15.5163 7.30273 15.2473 7.04164C14.8872 6.68151 14.4516 6.40129 13.9902 6.18633Z" fill="#2D2D2D"/>
<path d="M35.8338 2.46238C33.9746 0.7709 31.5393 0 28.4793 0C25.7344 0 22.8061 0.949839 21.1462 2.4545C19.8306 3.65868 19.1475 5.32315 19.1475 6.991C19.1475 8.67685 19.8081 10.3211 21.1462 11.5297C22.9401 13.1346 25.6084 14 28.4793 14C31.3738 14 34.1041 13.1481 35.8338 11.5297C37.1246 10.3391 37.8021 8.60932 37.8021 6.991C37.8021 5.31415 37.1629 3.67219 35.8338 2.46238ZM32.4182 10.6407C31.4312 11.6186 30.0211 12.1532 28.4793 12.1532C26.9701 12.1532 25.5217 11.6153 24.5381 10.6407C23.6063 9.70209 23.1066 8.38987 23.1066 6.991C23.1066 5.58424 23.6007 4.2664 24.5381 3.33006C25.5217 2.36447 26.9701 1.82203 28.4793 1.82203C29.9896 1.82203 31.4447 2.37347 32.4182 3.33006C33.368 4.26527 33.8621 5.57187 33.8621 6.991C33.8632 8.45852 33.4041 9.65595 32.4182 10.6407Z" fill="#2D2D2D"/>
</svg>
